<svg width="562" height="292" viewBox="0 0 562 292" fill="none" xmlns="http://www.w3.org/2000/svg">
<g filter="url(#filter0_d_1_306)">
<rect x="31" y="21" width="500" height="230" rx="9" stroke="#666666" stroke-opacity="0.08" stroke-width="2" shape-rendering="crispEdges"/>
</g>
<path d="M67.1719 50.4922L67.0547 50.3203C67.3464 49.2005 67.8099 47.9531 68.4453 46.5781H69.4062C69.25 47.1771 69.0938 47.8542 68.9375 48.6094C68.7865 49.3594 68.6771 49.987 68.6094 50.4922H67.1719ZM64.2891 50.4922L64.1953 50.3203C64.3099 49.8516 64.4948 49.2682 64.75 48.5703C65.0052 47.8724 65.2786 47.2083 65.5703 46.5781H66.5312C66.1875 47.901 65.9193 49.2057 65.7266 50.4922H64.2891ZM81.0938 52.2734C81.0938 54.1016 80.6302 55.5391 79.7031 56.5859C78.7812 57.6328 77.4974 58.1562 75.8516 58.1562C74.1693 58.1562 72.8698 57.6432 71.9531 56.6172C71.0417 55.5859 70.5859 54.1328 70.5859 52.2578C70.5859 50.3984 71.0443 48.9583 71.9609 47.9375C72.8776 46.9115 74.1797 46.3984 75.8672 46.3984C77.5078 46.3984 78.7891 46.9193 79.7109 47.9609C80.6328 49.0026 81.0938 50.4401 81.0938 52.2734ZM71.9922 52.2734C71.9922 53.8203 72.3203 54.9948 72.9766 55.7969C73.638 56.5938 74.5964 56.9922 75.8516 56.9922C77.1172 56.9922 78.0729 56.5938 78.7188 55.7969C79.3646 55 79.6875 53.8255 79.6875 52.2734C79.6875 50.737 79.3646 49.5729 78.7188 48.7812C78.0781 47.9844 77.1276 47.5859 75.8672 47.5859C74.6016 47.5859 73.638 47.987 72.9766 48.7891C72.3203 49.5859 71.9922 50.7474 71.9922 52.2734ZM89.3125 58V52.4609C89.3125 51.763 89.1536 51.2422 88.8359 50.8984C88.5182 50.5547 88.0208 50.3828 87.3438 50.3828C86.4479 50.3828 85.7917 50.625 85.375 51.1094C84.9583 51.5938 84.75 52.3932 84.75 53.5078V58H83.4531V49.4375H84.5078L84.7188 50.6094H84.7812C85.0469 50.1875 85.4193 49.862 85.8984 49.6328C86.3776 49.3984 86.9115 49.2812 87.5 49.2812C88.5312 49.2812 89.3073 49.5312 89.8281 50.0312C90.349 50.526 90.6094 51.3203 90.6094 52.4141V58H89.3125ZM100.203 57.0859C100.432 57.0859 100.654 57.0703 100.867 57.0391C101.081 57.0026 101.25 56.9661 101.375 56.9297V57.9219C101.234 57.9896 101.026 58.0443 100.75 58.0859C100.479 58.1328 100.234 58.1562 100.016 58.1562C98.3594 58.1562 97.5312 57.2839 97.5312 55.5391V50.4453H96.3047V49.8203L97.5312 49.2812L98.0781 47.4531H98.8281V49.4375H101.312V50.4453H98.8281V55.4844C98.8281 56 98.9505 56.3958 99.1953 56.6719C99.4401 56.9479 99.776 57.0859 100.203 57.0859ZM108.953 58V52.4609C108.953 51.763 108.794 51.2422 108.477 50.8984C108.159 50.5547 107.661 50.3828 106.984 50.3828C106.083 50.3828 105.424 50.6276 105.008 51.1172C104.596 51.6068 104.391 52.4089 104.391 53.5234V58H103.094V45.8438H104.391V49.5234C104.391 49.9661 104.37 50.3333 104.328 50.625H104.406C104.661 50.2135 105.023 49.8906 105.492 49.6562C105.966 49.4167 106.505 49.2969 107.109 49.2969C108.156 49.2969 108.94 49.5469 109.461 50.0469C109.987 50.5417 110.25 51.3307 110.25 52.4141V58H108.953ZM116.539 58.1562C115.273 58.1562 114.273 57.7708 113.539 57C112.81 56.2292 112.445 55.1589 112.445 53.7891C112.445 52.4089 112.784 51.3125 113.461 50.5C114.143 49.6875 115.057 49.2812 116.203 49.2812C117.276 49.2812 118.125 49.6354 118.75 50.3438C119.375 51.0469 119.688 51.9766 119.688 53.1328V53.9531H113.789C113.815 54.9583 114.068 55.7214 114.547 56.2422C115.031 56.763 115.711 57.0234 116.586 57.0234C117.508 57.0234 118.419 56.8307 119.32 56.4453V57.6016C118.862 57.7995 118.427 57.9401 118.016 58.0234C117.609 58.112 117.117 58.1562 116.539 58.1562ZM116.188 50.3672C115.5 50.3672 114.951 50.5911 114.539 51.0391C114.133 51.487 113.893 52.1068 113.82 52.8984H118.297C118.297 52.0807 118.115 51.4557 117.75 51.0234C117.385 50.5859 116.865 50.3672 116.188 50.3672ZM136.227 58H134.914L132.609 50.3516C132.5 50.013 132.378 49.5859 132.242 49.0703C132.107 48.5547 132.036 48.2448 132.031 48.1406C131.917 48.8281 131.734 49.5807 131.484 50.3984L129.25 58H127.938L124.898 46.5781H126.305L128.109 53.6328C128.359 54.6224 128.542 55.5182 128.656 56.3203C128.797 55.3672 129.005 54.4349 129.281 53.5234L131.328 46.5781H132.734L134.883 53.5859C135.133 54.3932 135.344 55.3047 135.516 56.3203C135.615 55.5807 135.802 54.6797 136.078 53.6172L137.875 46.5781H139.281L136.227 58ZM142.172 58H140.875V49.4375H142.172V58ZM140.766 47.1172C140.766 46.8203 140.839 46.6042 140.984 46.4688C141.13 46.3281 141.312 46.2578 141.531 46.2578C141.74 46.2578 141.919 46.3281 142.07 46.4688C142.221 46.6094 142.297 46.8255 142.297 47.1172C142.297 47.4089 142.221 47.6276 142.07 47.7734C141.919 47.9141 141.74 47.9844 141.531 47.9844C141.312 47.9844 141.13 47.9141 140.984 47.7734C140.839 47.6276 140.766 47.4089 140.766 47.1172ZM150.781 58V52.4609C150.781 51.763 150.622 51.2422 150.305 50.8984C149.987 50.5547 149.49 50.3828 148.812 50.3828C147.917 50.3828 147.26 50.625 146.844 51.1094C146.427 51.5938 146.219 52.3932 146.219 53.5078V58H144.922V49.4375H145.977L146.188 50.6094H146.25C146.516 50.1875 146.888 49.862 147.367 49.6328C147.846 49.3984 148.38 49.2812 148.969 49.2812C150 49.2812 150.776 49.5312 151.297 50.0312C151.818 50.526 152.078 51.3203 152.078 52.4141V58H150.781ZM160.578 56.8516H160.508C159.909 57.7214 159.013 58.1562 157.82 58.1562C156.701 58.1562 155.828 57.7734 155.203 57.0078C154.583 56.2422 154.273 55.1536 154.273 53.7422C154.273 52.3307 154.586 51.2344 155.211 50.4531C155.836 49.6719 156.706 49.2812 157.82 49.2812C158.982 49.2812 159.872 49.7031 160.492 50.5469H160.594L160.539 49.9297L160.508 49.3281V45.8438H161.805V58H160.75L160.578 56.8516ZM157.984 57.0703C158.87 57.0703 159.51 56.8307 159.906 56.3516C160.307 55.8672 160.508 55.0885 160.508 54.0156V53.7422C160.508 52.5286 160.305 51.6641 159.898 51.1484C159.497 50.6276 158.854 50.3672 157.969 50.3672C157.208 50.3672 156.625 50.6641 156.219 51.2578C155.818 51.8464 155.617 52.6797 155.617 53.7578C155.617 54.8516 155.818 55.6771 156.219 56.2344C156.62 56.7917 157.208 57.0703 157.984 57.0703ZM171.953 53.7109C171.953 55.1068 171.602 56.1979 170.898 56.9844C170.195 57.7656 169.224 58.1562 167.984 58.1562C167.219 58.1562 166.539 57.9766 165.945 57.6172C165.352 57.2578 164.893 56.7422 164.57 56.0703C164.247 55.3984 164.086 54.612 164.086 53.7109C164.086 52.3151 164.435 51.2292 165.133 50.4531C165.831 49.6719 166.799 49.2812 168.039 49.2812C169.237 49.2812 170.188 49.6797 170.891 50.4766C171.599 51.2734 171.953 52.3516 171.953 53.7109ZM165.43 53.7109C165.43 54.8047 165.648 55.638 166.086 56.2109C166.523 56.7839 167.167 57.0703 168.016 57.0703C168.865 57.0703 169.508 56.7865 169.945 56.2188C170.388 55.6458 170.609 54.8099 170.609 53.7109C170.609 52.6224 170.388 51.7969 169.945 51.2344C169.508 50.6667 168.859 50.3828 168 50.3828C167.151 50.3828 166.51 50.6615 166.078 51.2188C165.646 51.776 165.43 52.6068 165.43 53.7109ZM181.227 58L179.656 52.9766C179.557 52.6693 179.372 51.9714 179.102 50.8828H179.039C178.831 51.7943 178.648 52.4974 178.492 52.9922L176.875 58H175.375L173.039 49.4375H174.398C174.951 51.5885 175.37 53.2266 175.656 54.3516C175.948 55.4766 176.115 56.2344 176.156 56.625H176.219C176.276 56.3281 176.367 55.9453 176.492 55.4766C176.622 55.0026 176.734 54.6276 176.828 54.3516L178.398 49.4375H179.805L181.336 54.3516C181.628 55.2474 181.826 56 181.93 56.6094H181.992C182.013 56.4219 182.068 56.1328 182.156 55.7422C182.25 55.3516 182.794 53.25 183.789 49.4375H185.133L182.766 58H181.227ZM192.211 55.6641C192.211 56.4609 191.914 57.0755 191.32 57.5078C190.727 57.9401 189.893 58.1562 188.82 58.1562C187.685 58.1562 186.799 57.9766 186.164 57.6172V56.4141C186.576 56.6224 187.016 56.7865 187.484 56.9062C187.958 57.026 188.414 57.0859 188.852 57.0859C189.529 57.0859 190.049 56.9792 190.414 56.7656C190.779 56.5469 190.961 56.2161 190.961 55.7734C190.961 55.4401 190.815 55.1562 190.523 54.9219C190.237 54.6823 189.674 54.401 188.836 54.0781C188.039 53.7812 187.471 53.5234 187.133 53.3047C186.799 53.0807 186.549 52.8281 186.383 52.5469C186.221 52.2656 186.141 51.9297 186.141 51.5391C186.141 50.8411 186.424 50.2917 186.992 49.8906C187.56 49.4844 188.339 49.2812 189.328 49.2812C190.25 49.2812 191.151 49.4688 192.031 49.8438L191.57 50.8984C190.711 50.5443 189.932 50.3672 189.234 50.3672C188.62 50.3672 188.156 50.4635 187.844 50.6562C187.531 50.849 187.375 51.1146 187.375 51.4531C187.375 51.6823 187.432 51.8776 187.547 52.0391C187.667 52.2005 187.857 52.3542 188.117 52.5C188.378 52.6458 188.878 52.8568 189.617 53.1328C190.633 53.5026 191.318 53.875 191.672 54.25C192.031 54.625 192.211 55.0964 192.211 55.6641ZM201.25 57.0859C201.479 57.0859 201.701 57.0703 201.914 57.0391C202.128 57.0026 202.297 56.9661 202.422 56.9297V57.9219C202.281 57.9896 202.073 58.0443 201.797 58.0859C201.526 58.1328 201.281 58.1562 201.062 58.1562C199.406 58.1562 198.578 57.2839 198.578 55.5391V50.4453H197.352V49.8203L198.578 49.2812L199.125 47.4531H199.875V49.4375H202.359V50.4453H199.875V55.4844C199.875 56 199.997 56.3958 200.242 56.6719C200.487 56.9479 200.823 57.0859 201.25 57.0859ZM209.406 58L209.148 56.7812H209.086C208.659 57.3177 208.232 57.6823 207.805 57.875C207.383 58.0625 206.854 58.1562 206.219 58.1562C205.37 58.1562 204.703 57.9375 204.219 57.5C203.74 57.0625 203.5 56.4401 203.5 55.6328C203.5 53.9036 204.883 52.9974 207.648 52.9141L209.102 52.8672V52.3359C209.102 51.6641 208.956 51.1693 208.664 50.8516C208.378 50.5286 207.917 50.3672 207.281 50.3672C206.568 50.3672 205.76 50.5859 204.859 51.0234L204.461 50.0312C204.883 49.8021 205.344 49.6224 205.844 49.4922C206.349 49.362 206.854 49.2969 207.359 49.2969C208.38 49.2969 209.135 49.5234 209.625 49.9766C210.12 50.4297 210.367 51.1562 210.367 52.1562V58H209.406ZM206.477 57.0859C207.284 57.0859 207.917 56.8646 208.375 56.4219C208.839 55.9792 209.07 55.3594 209.07 54.5625V53.7891L207.773 53.8438C206.742 53.8802 205.997 54.0417 205.539 54.3281C205.086 54.6094 204.859 55.0495 204.859 55.6484C204.859 56.1172 205 56.474 205.281 56.7188C205.568 56.9635 205.966 57.0859 206.477 57.0859ZM214.344 58H213.047V45.8438H214.344V58ZM218.375 53.6172C218.599 53.2995 218.94 52.8828 219.398 52.3672L222.164 49.4375H223.703L220.234 53.0859L223.945 58H222.375L219.352 53.9531L218.375 54.7969V58H217.094V45.8438H218.375V52.2891C218.375 52.5755 218.354 53.0182 218.312 53.6172H218.375ZM226.797 58H225.5V49.4375H226.797V58ZM225.391 47.1172C225.391 46.8203 225.464 46.6042 225.609 46.4688C225.755 46.3281 225.938 46.2578 226.156 46.2578C226.365 46.2578 226.544 46.3281 226.695 46.4688C226.846 46.6094 226.922 46.8255 226.922 47.1172C226.922 47.4089 226.846 47.6276 226.695 47.7734C226.544 47.9141 226.365 47.9844 226.156 47.9844C225.938 47.9844 225.755 47.9141 225.609 47.7734C225.464 47.6276 225.391 47.4089 225.391 47.1172ZM235.406 58V52.4609C235.406 51.763 235.247 51.2422 234.93 50.8984C234.612 50.5547 234.115 50.3828 233.438 50.3828C232.542 50.3828 231.885 50.625 231.469 51.1094C231.052 51.5938 230.844 52.3932 230.844 53.5078V58H229.547V49.4375H230.602L230.812 50.6094H230.875C231.141 50.1875 231.513 49.862 231.992 49.6328C232.471 49.3984 233.005 49.2812 233.594 49.2812C234.625 49.2812 235.401 49.5312 235.922 50.0312C236.443 50.526 236.703 51.3203 236.703 52.4141V58H235.406ZM246.383 49.4375V50.2578L244.797 50.4453C244.943 50.6276 245.073 50.8672 245.188 51.1641C245.302 51.4557 245.359 51.7865 245.359 52.1562C245.359 52.9948 245.073 53.6641 244.5 54.1641C243.927 54.6641 243.141 54.9141 242.141 54.9141C241.885 54.9141 241.646 54.8932 241.422 54.8516C240.87 55.1432 240.594 55.5104 240.594 55.9531C240.594 56.1875 240.69 56.362 240.883 56.4766C241.076 56.5859 241.406 56.6406 241.875 56.6406H243.391C244.318 56.6406 245.029 56.8359 245.523 57.2266C246.023 57.6172 246.273 58.1849 246.273 58.9297C246.273 59.8776 245.893 60.599 245.133 61.0938C244.372 61.5938 243.263 61.8438 241.805 61.8438C240.685 61.8438 239.82 61.6354 239.211 61.2188C238.607 60.8021 238.305 60.2135 238.305 59.4531C238.305 58.9323 238.471 58.4818 238.805 58.1016C239.138 57.7214 239.607 57.4635 240.211 57.3281C239.992 57.2292 239.807 57.0755 239.656 56.8672C239.51 56.6589 239.438 56.4167 239.438 56.1406C239.438 55.8281 239.521 55.5547 239.688 55.3203C239.854 55.0859 240.117 54.8594 240.477 54.6406C240.034 54.4583 239.672 54.1484 239.391 53.7109C239.115 53.2734 238.977 52.7734 238.977 52.2109C238.977 51.2734 239.258 50.5521 239.82 50.0469C240.383 49.5365 241.18 49.2812 242.211 49.2812C242.659 49.2812 243.062 49.3333 243.422 49.4375H246.383ZM239.555 59.4375C239.555 59.901 239.75 60.2526 240.141 60.4922C240.531 60.7318 241.091 60.8516 241.82 60.8516C242.909 60.8516 243.714 60.6875 244.234 60.3594C244.76 60.0365 245.023 59.5964 245.023 59.0391C245.023 58.5755 244.88 58.2526 244.594 58.0703C244.307 57.8932 243.768 57.8047 242.977 57.8047H241.422C240.833 57.8047 240.375 57.9453 240.047 58.2266C239.719 58.5078 239.555 58.9115 239.555 59.4375ZM240.258 52.1797C240.258 52.7786 240.427 53.2318 240.766 53.5391C241.104 53.8464 241.576 54 242.18 54C243.445 54 244.078 53.3854 244.078 52.1562C244.078 50.8698 243.438 50.2266 242.156 50.2266C241.547 50.2266 241.078 50.3906 240.75 50.7188C240.422 51.0469 240.258 51.5339 240.258 52.1797ZM256.281 58.1562C255.724 58.1562 255.214 58.0547 254.75 57.8516C254.292 57.6432 253.906 57.3255 253.594 56.8984H253.5C253.562 57.3984 253.594 57.8724 253.594 58.3203V61.8438H252.297V49.4375H253.352L253.531 50.6094H253.594C253.927 50.1406 254.315 49.8021 254.758 49.5938C255.201 49.3854 255.708 49.2812 256.281 49.2812C257.417 49.2812 258.292 49.6693 258.906 50.4453C259.526 51.2214 259.836 52.3099 259.836 53.7109C259.836 55.1172 259.521 56.2109 258.891 56.9922C258.266 57.7682 257.396 58.1562 256.281 58.1562ZM256.094 50.3828C255.219 50.3828 254.586 50.625 254.195 51.1094C253.805 51.5938 253.604 52.3646 253.594 53.4219V53.7109C253.594 54.9141 253.794 55.776 254.195 56.2969C254.596 56.8125 255.24 57.0703 256.125 57.0703C256.865 57.0703 257.443 56.7708 257.859 56.1719C258.281 55.5729 258.492 54.7474 258.492 53.6953C258.492 52.6276 258.281 51.8099 257.859 51.2422C257.443 50.6693 256.854 50.3828 256.094 50.3828ZM267.375 58L267.117 56.7812H267.055C266.628 57.3177 266.201 57.6823 265.773 57.875C265.352 58.0625 264.823 58.1562 264.188 58.1562C263.339 58.1562 262.672 57.9375 262.188 57.5C261.708 57.0625 261.469 56.4401 261.469 55.6328C261.469 53.9036 262.852 52.9974 265.617 52.9141L267.07 52.8672V52.3359C267.07 51.6641 266.924 51.1693 266.633 50.8516C266.346 50.5286 265.885 50.3672 265.25 50.3672C264.536 50.3672 263.729 50.5859 262.828 51.0234L262.43 50.0312C262.852 49.8021 263.312 49.6224 263.812 49.4922C264.318 49.362 264.823 49.2969 265.328 49.2969C266.349 49.2969 267.104 49.5234 267.594 49.9766C268.089 50.4297 268.336 51.1562 268.336 52.1562V58H267.375ZM264.445 57.0859C265.253 57.0859 265.885 56.8646 266.344 56.4219C266.807 55.9792 267.039 55.3594 267.039 54.5625V53.7891L265.742 53.8438C264.711 53.8802 263.966 54.0417 263.508 54.3281C263.055 54.6094 262.828 55.0495 262.828 55.6484C262.828 56.1172 262.969 56.474 263.25 56.7188C263.536 56.9635 263.935 57.0859 264.445 57.0859ZM272.312 58H271.016V49.4375H272.312V58ZM270.906 47.1172C270.906 46.8203 270.979 46.6042 271.125 46.4688C271.271 46.3281 271.453 46.2578 271.672 46.2578C271.88 46.2578 272.06 46.3281 272.211 46.4688C272.362 46.6094 272.438 46.8255 272.438 47.1172C272.438 47.4089 272.362 47.6276 272.211 47.7734C272.06 47.9141 271.88 47.9844 271.672 47.9844C271.453 47.9844 271.271 47.9141 271.125 47.7734C270.979 47.6276 270.906 47.4089 270.906 47.1172ZM280.922 58V52.4609C280.922 51.763 280.763 51.2422 280.445 50.8984C280.128 50.5547 279.63 50.3828 278.953 50.3828C278.057 50.3828 277.401 50.625 276.984 51.1094C276.568 51.5938 276.359 52.3932 276.359 53.5078V58H275.062V49.4375H276.117L276.328 50.6094H276.391C276.656 50.1875 277.029 49.862 277.508 49.6328C277.987 49.3984 278.521 49.2812 279.109 49.2812C280.141 49.2812 280.917 49.5312 281.438 50.0312C281.958 50.526 282.219 51.3203 282.219 52.4141V58H280.922ZM287.656 57.0859C287.885 57.0859 288.107 57.0703 288.32 57.0391C288.534 57.0026 288.703 56.9661 288.828 56.9297V57.9219C288.688 57.9896 288.479 58.0443 288.203 58.0859C287.932 58.1328 287.688 58.1562 287.469 58.1562C285.812 58.1562 284.984 57.2839 284.984 55.5391V50.4453H283.758V49.8203L284.984 49.2812L285.531 47.4531H286.281V49.4375H288.766V50.4453H286.281V55.4844C286.281 56 286.404 56.3958 286.648 56.6719C286.893 56.9479 287.229 57.0859 287.656 57.0859ZM294.164 58.1562C292.898 58.1562 291.898 57.7708 291.164 57C290.435 56.2292 290.07 55.1589 290.07 53.7891C290.07 52.4089 290.409 51.3125 291.086 50.5C291.768 49.6875 292.682 49.2812 293.828 49.2812C294.901 49.2812 295.75 49.6354 296.375 50.3438C297 51.0469 297.312 51.9766 297.312 53.1328V53.9531H291.414C291.44 54.9583 291.693 55.7214 292.172 56.2422C292.656 56.763 293.336 57.0234 294.211 57.0234C295.133 57.0234 296.044 56.8307 296.945 56.4453V57.6016C296.487 57.7995 296.052 57.9401 295.641 58.0234C295.234 58.112 294.742 58.1562 294.164 58.1562ZM293.812 50.3672C293.125 50.3672 292.576 50.5911 292.164 51.0391C291.758 51.487 291.518 52.1068 291.445 52.8984H295.922C295.922 52.0807 295.74 51.4557 295.375 51.0234C295.01 50.5859 294.49 50.3672 293.812 50.3672ZM305.359 56.8516H305.289C304.69 57.7214 303.794 58.1562 302.602 58.1562C301.482 58.1562 300.609 57.7734 299.984 57.0078C299.365 56.2422 299.055 55.1536 299.055 53.7422C299.055 52.3307 299.367 51.2344 299.992 50.4531C300.617 49.6719 301.487 49.2812 302.602 49.2812C303.763 49.2812 304.654 49.7031 305.273 50.5469H305.375L305.32 49.9297L305.289 49.3281V45.8438H306.586V58H305.531L305.359 56.8516ZM302.766 57.0703C303.651 57.0703 304.292 56.8307 304.688 56.3516C305.089 55.8672 305.289 55.0885 305.289 54.0156V53.7422C305.289 52.5286 305.086 51.6641 304.68 51.1484C304.279 50.6276 303.635 50.3672 302.75 50.3672C301.99 50.3672 301.406 50.6641 301 51.2578C300.599 51.8464 300.398 52.6797 300.398 53.7578C300.398 54.8516 300.599 55.6771 301 56.2344C301.401 56.7917 301.99 57.0703 302.766 57.0703ZM317.484 58.1562C316.927 58.1562 316.417 58.0547 315.953 57.8516C315.495 57.6432 315.109 57.3255 314.797 56.8984H314.703C314.766 57.3984 314.797 57.8724 314.797 58.3203V61.8438H313.5V49.4375H314.555L314.734 50.6094H314.797C315.13 50.1406 315.518 49.8021 315.961 49.5938C316.404 49.3854 316.911 49.2812 317.484 49.2812C318.62 49.2812 319.495 49.6693 320.109 50.4453C320.729 51.2214 321.039 52.3099 321.039 53.7109C321.039 55.1172 320.724 56.2109 320.094 56.9922C319.469 57.7682 318.599 58.1562 317.484 58.1562ZM317.297 50.3828C316.422 50.3828 315.789 50.625 315.398 51.1094C315.008 51.5938 314.807 52.3646 314.797 53.4219V53.7109C314.797 54.9141 314.997 55.776 315.398 56.2969C315.799 56.8125 316.443 57.0703 317.328 57.0703C318.068 57.0703 318.646 56.7708 319.062 56.1719C319.484 55.5729 319.695 54.7474 319.695 53.6953C319.695 52.6276 319.484 51.8099 319.062 51.2422C318.646 50.6693 318.057 50.3828 317.297 50.3828ZM328.578 58L328.32 56.7812H328.258C327.831 57.3177 327.404 57.6823 326.977 57.875C326.555 58.0625 326.026 58.1562 325.391 58.1562C324.542 58.1562 323.875 57.9375 323.391 57.5C322.911 57.0625 322.672 56.4401 322.672 55.6328C322.672 53.9036 324.055 52.9974 326.82 52.9141L328.273 52.8672V52.3359C328.273 51.6641 328.128 51.1693 327.836 50.8516C327.549 50.5286 327.089 50.3672 326.453 50.3672C325.74 50.3672 324.932 50.5859 324.031 51.0234L323.633 50.0312C324.055 49.8021 324.516 49.6224 325.016 49.4922C325.521 49.362 326.026 49.2969 326.531 49.2969C327.552 49.2969 328.307 49.5234 328.797 49.9766C329.292 50.4297 329.539 51.1562 329.539 52.1562V58H328.578ZM325.648 57.0859C326.456 57.0859 327.089 56.8646 327.547 56.4219C328.01 55.9792 328.242 55.3594 328.242 54.5625V53.7891L326.945 53.8438C325.914 53.8802 325.169 54.0417 324.711 54.3281C324.258 54.6094 324.031 55.0495 324.031 55.6484C324.031 56.1172 324.172 56.474 324.453 56.7188C324.74 56.9635 325.138 57.0859 325.648 57.0859ZM337.742 55.6641C337.742 56.4609 337.445 57.0755 336.852 57.5078C336.258 57.9401 335.424 58.1562 334.352 58.1562C333.216 58.1562 332.331 57.9766 331.695 57.6172V56.4141C332.107 56.6224 332.547 56.7865 333.016 56.9062C333.49 57.026 333.945 57.0859 334.383 57.0859C335.06 57.0859 335.581 56.9792 335.945 56.7656C336.31 56.5469 336.492 56.2161 336.492 55.7734C336.492 55.4401 336.346 55.1562 336.055 54.9219C335.768 54.6823 335.206 54.401 334.367 54.0781C333.57 53.7812 333.003 53.5234 332.664 53.3047C332.331 53.0807 332.081 52.8281 331.914 52.5469C331.753 52.2656 331.672 51.9297 331.672 51.5391C331.672 50.8411 331.956 50.2917 332.523 49.8906C333.091 49.4844 333.87 49.2812 334.859 49.2812C335.781 49.2812 336.682 49.4688 337.562 49.8438L337.102 50.8984C336.242 50.5443 335.464 50.3672 334.766 50.3672C334.151 50.3672 333.688 50.4635 333.375 50.6562C333.062 50.849 332.906 51.1146 332.906 51.4531C332.906 51.6823 332.964 51.8776 333.078 52.0391C333.198 52.2005 333.388 52.3542 333.648 52.5C333.909 52.6458 334.409 52.8568 335.148 53.1328C336.164 53.5026 336.849 53.875 337.203 54.25C337.562 54.625 337.742 55.0964 337.742 55.6641ZM342.625 57.0859C342.854 57.0859 343.076 57.0703 343.289 57.0391C343.503 57.0026 343.672 56.9661 343.797 56.9297V57.9219C343.656 57.9896 343.448 58.0443 343.172 58.0859C342.901 58.1328 342.656 58.1562 342.438 58.1562C340.781 58.1562 339.953 57.2839 339.953 55.5391V50.4453H338.727V49.8203L339.953 49.2812L340.5 47.4531H341.25V49.4375H343.734V50.4453H341.25V55.4844C341.25 56 341.372 56.3958 341.617 56.6719C341.862 56.9479 342.198 57.0859 342.625 57.0859ZM346.734 49.4375V54.9922C346.734 55.6901 346.893 56.2109 347.211 56.5547C347.529 56.8984 348.026 57.0703 348.703 57.0703C349.599 57.0703 350.253 56.8255 350.664 56.3359C351.081 55.8464 351.289 55.0469 351.289 53.9375V49.4375H352.586V58H351.516L351.328 56.8516H351.258C350.992 57.2734 350.622 57.5964 350.148 57.8203C349.68 58.0443 349.143 58.1562 348.539 58.1562C347.497 58.1562 346.716 57.9089 346.195 57.4141C345.68 56.9193 345.422 56.1276 345.422 55.0391V49.4375H346.734ZM359.25 49.2812C359.63 49.2812 359.971 49.3125 360.273 49.375L360.094 50.5781C359.74 50.5 359.427 50.4609 359.156 50.4609C358.464 50.4609 357.87 50.7422 357.375 51.3047C356.885 51.8672 356.641 52.5677 356.641 53.4062V58H355.344V49.4375H356.414L356.562 51.0234H356.625C356.943 50.4661 357.326 50.0365 357.773 49.7344C358.221 49.4323 358.714 49.2812 359.25 49.2812ZM365.492 58.1562C364.227 58.1562 363.227 57.7708 362.492 57C361.763 56.2292 361.398 55.1589 361.398 53.7891C361.398 52.4089 361.737 51.3125 362.414 50.5C363.096 49.6875 364.01 49.2812 365.156 49.2812C366.229 49.2812 367.078 49.6354 367.703 50.3438C368.328 51.0469 368.641 51.9766 368.641 53.1328V53.9531H362.742C362.768 54.9583 363.021 55.7214 363.5 56.2422C363.984 56.763 364.664 57.0234 365.539 57.0234C366.461 57.0234 367.372 56.8307 368.273 56.4453V57.6016C367.815 57.7995 367.38 57.9401 366.969 58.0234C366.562 58.112 366.07 58.1562 365.492 58.1562ZM365.141 50.3672C364.453 50.3672 363.904 50.5911 363.492 51.0391C363.086 51.487 362.846 52.1068 362.773 52.8984H367.25C367.25 52.0807 367.068 51.4557 366.703 51.0234C366.339 50.5859 365.818 50.3672 365.141 50.3672ZM373.656 49.4375H375.047L376.922 54.3203C377.333 55.4349 377.589 56.2396 377.688 56.7344H377.75C377.818 56.4688 377.958 56.0156 378.172 55.375C378.391 54.7292 379.099 52.75 380.297 49.4375H381.688L378.008 59.1875C377.643 60.151 377.216 60.8333 376.727 61.2344C376.242 61.6406 375.646 61.8438 374.938 61.8438C374.542 61.8438 374.151 61.7995 373.766 61.7109V60.6719C374.052 60.7344 374.372 60.7656 374.727 60.7656C375.617 60.7656 376.253 60.2656 376.633 59.2656L377.109 58.0469L373.656 49.4375ZM386.695 58.1562C385.43 58.1562 384.43 57.7708 383.695 57C382.966 56.2292 382.602 55.1589 382.602 53.7891C382.602 52.4089 382.94 51.3125 383.617 50.5C384.299 49.6875 385.214 49.2812 386.359 49.2812C387.432 49.2812 388.281 49.6354 388.906 50.3438C389.531 51.0469 389.844 51.9766 389.844 53.1328V53.9531H383.945C383.971 54.9583 384.224 55.7214 384.703 56.2422C385.188 56.763 385.867 57.0234 386.742 57.0234C387.664 57.0234 388.576 56.8307 389.477 56.4453V57.6016C389.018 57.7995 388.583 57.9401 388.172 58.0234C387.766 58.112 387.273 58.1562 386.695 58.1562ZM386.344 50.3672C385.656 50.3672 385.107 50.5911 384.695 51.0391C384.289 51.487 384.049 52.1068 383.977 52.8984H388.453C388.453 52.0807 388.271 51.4557 387.906 51.0234C387.542 50.5859 387.021 50.3672 386.344 50.3672ZM394.828 57.0859C395.057 57.0859 395.279 57.0703 395.492 57.0391C395.706 57.0026 395.875 56.9661 396 56.9297V57.9219C395.859 57.9896 395.651 58.0443 395.375 58.0859C395.104 58.1328 394.859 58.1562 394.641 58.1562C392.984 58.1562 392.156 57.2839 392.156 55.5391V50.4453H390.93V49.8203L392.156 49.2812L392.703 47.4531H393.453V49.4375H395.938V50.4453H393.453V55.4844C393.453 56 393.576 56.3958 393.82 56.6719C394.065 56.9479 394.401 57.0859 394.828 57.0859ZM403.172 58H401.875V49.4375H403.172V58ZM401.766 47.1172C401.766 46.8203 401.839 46.6042 401.984 46.4688C402.13 46.3281 402.312 46.2578 402.531 46.2578C402.74 46.2578 402.919 46.3281 403.07 46.4688C403.221 46.6094 403.297 46.8255 403.297 47.1172C403.297 47.4089 403.221 47.6276 403.07 47.7734C402.919 47.9141 402.74 47.9844 402.531 47.9844C402.312 47.9844 402.13 47.9141 401.984 47.7734C401.839 47.6276 401.766 47.4089 401.766 47.1172ZM408.688 57.0859C408.917 57.0859 409.138 57.0703 409.352 57.0391C409.565 57.0026 409.734 56.9661 409.859 56.9297V57.9219C409.719 57.9896 409.51 58.0443 409.234 58.0859C408.964 58.1328 408.719 58.1562 408.5 58.1562C406.844 58.1562 406.016 57.2839 406.016 55.5391V50.4453H404.789V49.8203L406.016 49.2812L406.562 47.4531H407.312V49.4375H409.797V50.4453H407.312V55.4844C407.312 56 407.435 56.3958 407.68 56.6719C407.924 56.9479 408.26 57.0859 408.688 57.0859ZM417.102 55.6641C417.102 56.4609 416.805 57.0755 416.211 57.5078C415.617 57.9401 414.784 58.1562 413.711 58.1562C412.576 58.1562 411.69 57.9766 411.055 57.6172V56.4141C411.466 56.6224 411.906 56.7865 412.375 56.9062C412.849 57.026 413.305 57.0859 413.742 57.0859C414.419 57.0859 414.94 56.9792 415.305 56.7656C415.669 56.5469 415.852 56.2161 415.852 55.7734C415.852 55.4401 415.706 55.1562 415.414 54.9219C415.128 54.6823 414.565 54.401 413.727 54.0781C412.93 53.7812 412.362 53.5234 412.023 53.3047C411.69 53.0807 411.44 52.8281 411.273 52.5469C411.112 52.2656 411.031 51.9297 411.031 51.5391C411.031 50.8411 411.315 50.2917 411.883 49.8906C412.451 49.4844 413.229 49.2812 414.219 49.2812C415.141 49.2812 416.042 49.4688 416.922 49.8438L416.461 50.8984C415.602 50.5443 414.823 50.3672 414.125 50.3672C413.51 50.3672 413.047 50.4635 412.734 50.6562C412.422 50.849 412.266 51.1146 412.266 51.4531C412.266 51.6823 412.323 51.8776 412.438 52.0391C412.557 52.2005 412.747 52.3542 413.008 52.5C413.268 52.6458 413.768 52.8568 414.508 53.1328C415.523 53.5026 416.208 53.875 416.562 54.25C416.922 54.625 417.102 55.0964 417.102 55.6641ZM68.9922 90.1562C67.7266 90.1562 66.7266 89.7708 65.9922 89C65.263 88.2292 64.8984 87.1589 64.8984 85.7891C64.8984 84.4089 65.237 83.3125 65.9141 82.5C66.5964 81.6875 67.5104 81.2812 68.6562 81.2812C69.7292 81.2812 70.5781 81.6354 71.2031 82.3438C71.8281 83.0469 72.1406 83.9766 72.1406 85.1328V85.9531H66.2422C66.2682 86.9583 66.5208 87.7214 67 88.2422C67.4844 88.763 68.1641 89.0234 69.0391 89.0234C69.9609 89.0234 70.8724 88.8307 71.7734 88.4453V89.6016C71.3151 89.7995 70.8802 89.9401 70.4688 90.0234C70.0625 90.112 69.5703 90.1562 68.9922 90.1562ZM68.6406 82.3672C67.9531 82.3672 67.4036 82.5911 66.9922 83.0391C66.5859 83.487 66.3464 84.1068 66.2734 84.8984H70.75C70.75 84.0807 70.5677 83.4557 70.2031 83.0234C69.8385 82.5859 69.3177 82.3672 68.6406 82.3672ZM76.4219 85.6172L73.4453 81.4375H74.9219L77.1797 84.7188L79.4297 81.4375H80.8906L77.9141 85.6172L81.0469 90H79.5781L77.1797 86.5312L74.7578 90H73.2891L76.4219 85.6172ZM86.7344 90.1562C86.1771 90.1562 85.6667 90.0547 85.2031 89.8516C84.7448 89.6432 84.3594 89.3255 84.0469 88.8984H83.9531C84.0156 89.3984 84.0469 89.8724 84.0469 90.3203V93.8438H82.75V81.4375H83.8047L83.9844 82.6094H84.0469C84.3802 82.1406 84.7682 81.8021 85.2109 81.5938C85.6536 81.3854 86.1615 81.2812 86.7344 81.2812C87.8698 81.2812 88.7448 81.6693 89.3594 82.4453C89.9792 83.2214 90.2891 84.3099 90.2891 85.7109C90.2891 87.1172 89.974 88.2109 89.3438 88.9922C88.7188 89.7682 87.849 90.1562 86.7344 90.1562ZM86.5469 82.3828C85.6719 82.3828 85.0391 82.625 84.6484 83.1094C84.2578 83.5938 84.0573 84.3646 84.0469 85.4219V85.7109C84.0469 86.9141 84.2474 87.776 84.6484 88.2969C85.0495 88.8125 85.6927 89.0703 86.5781 89.0703C87.3177 89.0703 87.8958 88.7708 88.3125 88.1719C88.7344 87.5729 88.9453 86.7474 88.9453 85.6953C88.9453 84.6276 88.7344 83.8099 88.3125 83.2422C87.8958 82.6693 87.3073 82.3828 86.5469 82.3828ZM96.4688 81.2812C96.849 81.2812 97.1901 81.3125 97.4922 81.375L97.3125 82.5781C96.9583 82.5 96.6458 82.4609 96.375 82.4609C95.6823 82.4609 95.0885 82.7422 94.5938 83.3047C94.1042 83.8672 93.8594 84.5677 93.8594 85.4062V90H92.5625V81.4375H93.6328L93.7812 83.0234H93.8438C94.1615 82.4661 94.5443 82.0365 94.9922 81.7344C95.4401 81.4323 95.9323 81.2812 96.4688 81.2812ZM102.711 90.1562C101.445 90.1562 100.445 89.7708 99.7109 89C98.9818 88.2292 98.6172 87.1589 98.6172 85.7891C98.6172 84.4089 98.9557 83.3125 99.6328 82.5C100.315 81.6875 101.229 81.2812 102.375 81.2812C103.448 81.2812 104.297 81.6354 104.922 82.3438C105.547 83.0469 105.859 83.9766 105.859 85.1328V85.9531H99.9609C99.987 86.9583 100.24 87.7214 100.719 88.2422C101.203 88.763 101.883 89.0234 102.758 89.0234C103.68 89.0234 104.591 88.8307 105.492 88.4453V89.6016C105.034 89.7995 104.599 89.9401 104.188 90.0234C103.781 90.112 103.289 90.1562 102.711 90.1562ZM102.359 82.3672C101.672 82.3672 101.122 82.5911 100.711 83.0391C100.305 83.487 100.065 84.1068 99.9922 84.8984H104.469C104.469 84.0807 104.286 83.4557 103.922 83.0234C103.557 82.5859 103.036 82.3672 102.359 82.3672ZM113.602 87.6641C113.602 88.4609 113.305 89.0755 112.711 89.5078C112.117 89.9401 111.284 90.1562 110.211 90.1562C109.076 90.1562 108.19 89.9766 107.555 89.6172V88.4141C107.966 88.6224 108.406 88.7865 108.875 88.9062C109.349 89.026 109.805 89.0859 110.242 89.0859C110.919 89.0859 111.44 88.9792 111.805 88.7656C112.169 88.5469 112.352 88.2161 112.352 87.7734C112.352 87.4401 112.206 87.1562 111.914 86.9219C111.628 86.6823 111.065 86.401 110.227 86.0781C109.43 85.7812 108.862 85.5234 108.523 85.3047C108.19 85.0807 107.94 84.8281 107.773 84.5469C107.612 84.2656 107.531 83.9297 107.531 83.5391C107.531 82.8411 107.815 82.2917 108.383 81.8906C108.951 81.4844 109.729 81.2812 110.719 81.2812C111.641 81.2812 112.542 81.4688 113.422 81.8438L112.961 82.8984C112.102 82.5443 111.323 82.3672 110.625 82.3672C110.01 82.3672 109.547 82.4635 109.234 82.6562C108.922 82.849 108.766 83.1146 108.766 83.4531C108.766 83.6823 108.823 83.8776 108.938 84.0391C109.057 84.2005 109.247 84.3542 109.508 84.5C109.768 84.6458 110.268 84.8568 111.008 85.1328C112.023 85.5026 112.708 85.875 113.062 86.25C113.422 86.625 113.602 87.0964 113.602 87.6641ZM121.242 87.6641C121.242 88.4609 120.945 89.0755 120.352 89.5078C119.758 89.9401 118.924 90.1562 117.852 90.1562C116.716 90.1562 115.831 89.9766 115.195 89.6172V88.4141C115.607 88.6224 116.047 88.7865 116.516 88.9062C116.99 89.026 117.445 89.0859 117.883 89.0859C118.56 89.0859 119.081 88.9792 119.445 88.7656C119.81 88.5469 119.992 88.2161 119.992 87.7734C119.992 87.4401 119.846 87.1562 119.555 86.9219C119.268 86.6823 118.706 86.401 117.867 86.0781C117.07 85.7812 116.503 85.5234 116.164 85.3047C115.831 85.0807 115.581 84.8281 115.414 84.5469C115.253 84.2656 115.172 83.9297 115.172 83.5391C115.172 82.8411 115.456 82.2917 116.023 81.8906C116.591 81.4844 117.37 81.2812 118.359 81.2812C119.281 81.2812 120.182 81.4688 121.062 81.8438L120.602 82.8984C119.742 82.5443 118.964 82.3672 118.266 82.3672C117.651 82.3672 117.188 82.4635 116.875 82.6562C116.562 82.849 116.406 83.1146 116.406 83.4531C116.406 83.6823 116.464 83.8776 116.578 84.0391C116.698 84.2005 116.888 84.3542 117.148 84.5C117.409 84.6458 117.909 84.8568 118.648 85.1328C119.664 85.5026 120.349 85.875 120.703 86.25C121.062 86.625 121.242 87.0964 121.242 87.6641ZM131.5 90.1562C130.943 90.1562 130.432 90.0547 129.969 89.8516C129.51 89.6432 129.125 89.3255 128.812 88.8984H128.719C128.781 89.3984 128.812 89.8724 128.812 90.3203V93.8438H127.516V81.4375H128.57L128.75 82.6094H128.812C129.146 82.1406 129.534 81.8021 129.977 81.5938C130.419 81.3854 130.927 81.2812 131.5 81.2812C132.635 81.2812 133.51 81.6693 134.125 82.4453C134.745 83.2214 135.055 84.3099 135.055 85.7109C135.055 87.1172 134.74 88.2109 134.109 88.9922C133.484 89.7682 132.615 90.1562 131.5 90.1562ZM131.312 82.3828C130.438 82.3828 129.805 82.625 129.414 83.1094C129.023 83.5938 128.823 84.3646 128.812 85.4219V85.7109C128.812 86.9141 129.013 87.776 129.414 88.2969C129.815 88.8125 130.458 89.0703 131.344 89.0703C132.083 89.0703 132.661 88.7708 133.078 88.1719C133.5 87.5729 133.711 86.7474 133.711 85.6953C133.711 84.6276 133.5 83.8099 133.078 83.2422C132.661 82.6693 132.073 82.3828 131.312 82.3828ZM142.594 90L142.336 88.7812H142.273C141.846 89.3177 141.419 89.6823 140.992 89.875C140.57 90.0625 140.042 90.1562 139.406 90.1562C138.557 90.1562 137.891 89.9375 137.406 89.5C136.927 89.0625 136.688 88.4401 136.688 87.6328C136.688 85.9036 138.07 84.9974 140.836 84.9141L142.289 84.8672V84.3359C142.289 83.6641 142.143 83.1693 141.852 82.8516C141.565 82.5286 141.104 82.3672 140.469 82.3672C139.755 82.3672 138.948 82.5859 138.047 83.0234L137.648 82.0312C138.07 81.8021 138.531 81.6224 139.031 81.4922C139.536 81.362 140.042 81.2969 140.547 81.2969C141.568 81.2969 142.323 81.5234 142.812 81.9766C143.307 82.4297 143.555 83.1562 143.555 84.1562V90H142.594ZM139.664 89.0859C140.471 89.0859 141.104 88.8646 141.562 88.4219C142.026 87.9792 142.258 87.3594 142.258 86.5625V85.7891L140.961 85.8438C139.93 85.8802 139.185 86.0417 138.727 86.3281C138.273 86.6094 138.047 87.0495 138.047 87.6484C138.047 88.1172 138.188 88.474 138.469 88.7188C138.755 88.9635 139.154 89.0859 139.664 89.0859ZM150.141 81.2812C150.521 81.2812 150.862 81.3125 151.164 81.375L150.984 82.5781C150.63 82.5 150.318 82.4609 150.047 82.4609C149.354 82.4609 148.76 82.7422 148.266 83.3047C147.776 83.8672 147.531 84.5677 147.531 85.4062V90H146.234V81.4375H147.305L147.453 83.0234H147.516C147.833 82.4661 148.216 82.0365 148.664 81.7344C149.112 81.4323 149.604 81.2812 150.141 81.2812ZM155.531 89.0859C155.76 89.0859 155.982 89.0703 156.195 89.0391C156.409 89.0026 156.578 88.9661 156.703 88.9297V89.9219C156.562 89.9896 156.354 90.0443 156.078 90.0859C155.807 90.1328 155.562 90.1562 155.344 90.1562C153.688 90.1562 152.859 89.2839 152.859 87.5391V82.4453H151.633V81.8203L152.859 81.2812L153.406 79.4531H154.156V81.4375H156.641V82.4453H154.156V87.4844C154.156 88 154.279 88.3958 154.523 88.6719C154.768 88.9479 155.104 89.0859 155.531 89.0859ZM159.719 90H158.422V81.4375H159.719V90ZM158.312 79.1172C158.312 78.8203 158.385 78.6042 158.531 78.4688C158.677 78.3281 158.859 78.2578 159.078 78.2578C159.286 78.2578 159.466 78.3281 159.617 78.4688C159.768 78.6094 159.844 78.8255 159.844 79.1172C159.844 79.4089 159.768 79.6276 159.617 79.7734C159.466 79.9141 159.286 79.9844 159.078 79.9844C158.859 79.9844 158.677 79.9141 158.531 79.7734C158.385 79.6276 158.312 79.4089 158.312 79.1172ZM166.086 90.1562C164.82 90.1562 163.82 89.7708 163.086 89C162.357 88.2292 161.992 87.1589 161.992 85.7891C161.992 84.4089 162.331 83.3125 163.008 82.5C163.69 81.6875 164.604 81.2812 165.75 81.2812C166.823 81.2812 167.672 81.6354 168.297 82.3438C168.922 83.0469 169.234 83.9766 169.234 85.1328V85.9531H163.336C163.362 86.9583 163.615 87.7214 164.094 88.2422C164.578 88.763 165.258 89.0234 166.133 89.0234C167.055 89.0234 167.966 88.8307 168.867 88.4453V89.6016C168.409 89.7995 167.974 89.9401 167.562 90.0234C167.156 90.112 166.664 90.1562 166.086 90.1562ZM165.734 82.3672C165.047 82.3672 164.497 82.5911 164.086 83.0391C163.68 83.487 163.44 84.1068 163.367 84.8984H167.844C167.844 84.0807 167.661 83.4557 167.297 83.0234C166.932 82.5859 166.411 82.3672 165.734 82.3672ZM176.977 87.6641C176.977 88.4609 176.68 89.0755 176.086 89.5078C175.492 89.9401 174.659 90.1562 173.586 90.1562C172.451 90.1562 171.565 89.9766 170.93 89.6172V88.4141C171.341 88.6224 171.781 88.7865 172.25 88.9062C172.724 89.026 173.18 89.0859 173.617 89.0859C174.294 89.0859 174.815 88.9792 175.18 88.7656C175.544 88.5469 175.727 88.2161 175.727 87.7734C175.727 87.4401 175.581 87.1562 175.289 86.9219C175.003 86.6823 174.44 86.401 173.602 86.0781C172.805 85.7812 172.237 85.5234 171.898 85.3047C171.565 85.0807 171.315 84.8281 171.148 84.5469C170.987 84.2656 170.906 83.9297 170.906 83.5391C170.906 82.8411 171.19 82.2917 171.758 81.8906C172.326 81.4844 173.104 81.2812 174.094 81.2812C175.016 81.2812 175.917 81.4688 176.797 81.8438L176.336 82.8984C175.477 82.5443 174.698 82.3672 174 82.3672C173.385 82.3672 172.922 82.4635 172.609 82.6562C172.297 82.849 172.141 83.1146 172.141 83.4531C172.141 83.6823 172.198 83.8776 172.312 84.0391C172.432 84.2005 172.622 84.3542 172.883 84.5C173.143 84.6458 173.643 84.8568 174.383 85.1328C175.398 85.5026 176.083 85.875 176.438 86.25C176.797 86.625 176.977 87.0964 176.977 87.6641ZM184.469 81.4375V86.9922C184.469 87.6901 184.628 88.2109 184.945 88.5547C185.263 88.8984 185.76 89.0703 186.438 89.0703C187.333 89.0703 187.987 88.8255 188.398 88.3359C188.815 87.8464 189.023 87.0469 189.023 85.9375V81.4375H190.32V90H189.25L189.062 88.8516H188.992C188.727 89.2734 188.357 89.5964 187.883 89.8203C187.414 90.0443 186.878 90.1562 186.273 90.1562C185.232 90.1562 184.451 89.9089 183.93 89.4141C183.414 88.9193 183.156 88.1276 183.156 87.0391V81.4375H184.469ZM198.602 87.6641C198.602 88.4609 198.305 89.0755 197.711 89.5078C197.117 89.9401 196.284 90.1562 195.211 90.1562C194.076 90.1562 193.19 89.9766 192.555 89.6172V88.4141C192.966 88.6224 193.406 88.7865 193.875 88.9062C194.349 89.026 194.805 89.0859 195.242 89.0859C195.919 89.0859 196.44 88.9792 196.805 88.7656C197.169 88.5469 197.352 88.2161 197.352 87.7734C197.352 87.4401 197.206 87.1562 196.914 86.9219C196.628 86.6823 196.065 86.401 195.227 86.0781C194.43 85.7812 193.862 85.5234 193.523 85.3047C193.19 85.0807 192.94 84.8281 192.773 84.5469C192.612 84.2656 192.531 83.9297 192.531 83.5391C192.531 82.8411 192.815 82.2917 193.383 81.8906C193.951 81.4844 194.729 81.2812 195.719 81.2812C196.641 81.2812 197.542 81.4688 198.422 81.8438L197.961 82.8984C197.102 82.5443 196.323 82.3672 195.625 82.3672C195.01 82.3672 194.547 82.4635 194.234 82.6562C193.922 82.849 193.766 83.1146 193.766 83.4531C193.766 83.6823 193.823 83.8776 193.938 84.0391C194.057 84.2005 194.247 84.3542 194.508 84.5C194.768 84.6458 195.268 84.8568 196.008 85.1328C197.023 85.5026 197.708 85.875 198.062 86.25C198.422 86.625 198.602 87.0964 198.602 87.6641ZM204.336 90.1562C203.07 90.1562 202.07 89.7708 201.336 89C200.607 88.2292 200.242 87.1589 200.242 85.7891C200.242 84.4089 200.581 83.3125 201.258 82.5C201.94 81.6875 202.854 81.2812 204 81.2812C205.073 81.2812 205.922 81.6354 206.547 82.3438C207.172 83.0469 207.484 83.9766 207.484 85.1328V85.9531H201.586C201.612 86.9583 201.865 87.7214 202.344 88.2422C202.828 88.763 203.508 89.0234 204.383 89.0234C205.305 89.0234 206.216 88.8307 207.117 88.4453V89.6016C206.659 89.7995 206.224 89.9401 205.812 90.0234C205.406 90.112 204.914 90.1562 204.336 90.1562ZM203.984 82.3672C203.297 82.3672 202.747 82.5911 202.336 83.0391C201.93 83.487 201.69 84.1068 201.617 84.8984H206.094C206.094 84.0807 205.911 83.4557 205.547 83.0234C205.182 82.5859 204.661 82.3672 203.984 82.3672ZM209.516 89.1719C209.516 88.8229 209.594 88.5599 209.75 88.3828C209.911 88.2005 210.141 88.1094 210.438 88.1094C210.74 88.1094 210.974 88.2005 211.141 88.3828C211.312 88.5599 211.398 88.8229 211.398 89.1719C211.398 89.5104 211.312 89.7708 211.141 89.9531C210.969 90.1354 210.734 90.2266 210.438 90.2266C210.172 90.2266 209.951 90.1458 209.773 89.9844C209.602 89.8177 209.516 89.5469 209.516 89.1719ZM224.766 86.9609C224.766 87.9661 224.401 88.75 223.672 89.3125C222.943 89.875 221.953 90.1562 220.703 90.1562C219.349 90.1562 218.307 89.9818 217.578 89.6328V88.3516C218.047 88.5495 218.557 88.7057 219.109 88.8203C219.661 88.9349 220.208 88.9922 220.75 88.9922C221.635 88.9922 222.302 88.8255 222.75 88.4922C223.198 88.1536 223.422 87.6849 223.422 87.0859C223.422 86.6901 223.341 86.3672 223.18 86.1172C223.023 85.862 222.758 85.6276 222.383 85.4141C222.013 85.2005 221.448 84.9583 220.688 84.6875C219.625 84.3073 218.865 83.8568 218.406 83.3359C217.953 82.8151 217.727 82.1354 217.727 81.2969C217.727 80.4167 218.057 79.7161 218.719 79.1953C219.38 78.6745 220.255 78.4141 221.344 78.4141C222.479 78.4141 223.523 78.6224 224.477 79.0391L224.062 80.1953C223.12 79.7995 222.203 79.6016 221.312 79.6016C220.609 79.6016 220.06 79.7526 219.664 80.0547C219.268 80.3568 219.07 80.776 219.07 81.3125C219.07 81.7083 219.143 82.0339 219.289 82.2891C219.435 82.5391 219.68 82.7708 220.023 82.9844C220.372 83.1927 220.904 83.4245 221.617 83.6797C222.815 84.1068 223.638 84.5651 224.086 85.0547C224.539 85.5443 224.766 86.1797 224.766 86.9609ZM228.125 81.4375V86.9922C228.125 87.6901 228.284 88.2109 228.602 88.5547C228.919 88.8984 229.417 89.0703 230.094 89.0703C230.99 89.0703 231.643 88.8255 232.055 88.3359C232.471 87.8464 232.68 87.0469 232.68 85.9375V81.4375H233.977V90H232.906L232.719 88.8516H232.648C232.383 89.2734 232.013 89.5964 231.539 89.8203C231.07 90.0443 230.534 90.1562 229.93 90.1562C228.888 90.1562 228.107 89.9089 227.586 89.4141C227.07 88.9193 226.812 88.1276 226.812 87.0391V81.4375H228.125ZM240.641 81.2812C241.021 81.2812 241.362 81.3125 241.664 81.375L241.484 82.5781C241.13 82.5 240.818 82.4609 240.547 82.4609C239.854 82.4609 239.26 82.7422 238.766 83.3047C238.276 83.8672 238.031 84.5677 238.031 85.4062V90H236.734V81.4375H237.805L237.953 83.0234H238.016C238.333 82.4661 238.716 82.0365 239.164 81.7344C239.612 81.4323 240.104 81.2812 240.641 81.2812ZM246.883 90.1562C245.617 90.1562 244.617 89.7708 243.883 89C243.154 88.2292 242.789 87.1589 242.789 85.7891C242.789 84.4089 243.128 83.3125 243.805 82.5C244.487 81.6875 245.401 81.2812 246.547 81.2812C247.62 81.2812 248.469 81.6354 249.094 82.3438C249.719 83.0469 250.031 83.9766 250.031 85.1328V85.9531H244.133C244.159 86.9583 244.411 87.7214 244.891 88.2422C245.375 88.763 246.055 89.0234 246.93 89.0234C247.852 89.0234 248.763 88.8307 249.664 88.4453V89.6016C249.206 89.7995 248.771 89.9401 248.359 90.0234C247.953 90.112 247.461 90.1562 246.883 90.1562ZM246.531 82.3672C245.844 82.3672 245.294 82.5911 244.883 83.0391C244.477 83.487 244.237 84.1068 244.164 84.8984H248.641C248.641 84.0807 248.458 83.4557 248.094 83.0234C247.729 82.5859 247.208 82.3672 246.531 82.3672ZM257.703 90H256.406V77.8438H257.703V90ZM265.719 90L265.461 88.7812H265.398C264.971 89.3177 264.544 89.6823 264.117 89.875C263.695 90.0625 263.167 90.1562 262.531 90.1562C261.682 90.1562 261.016 89.9375 260.531 89.5C260.052 89.0625 259.812 88.4401 259.812 87.6328C259.812 85.9036 261.195 84.9974 263.961 84.9141L265.414 84.8672V84.3359C265.414 83.6641 265.268 83.1693 264.977 82.8516C264.69 82.5286 264.229 82.3672 263.594 82.3672C262.88 82.3672 262.073 82.5859 261.172 83.0234L260.773 82.0312C261.195 81.8021 261.656 81.6224 262.156 81.4922C262.661 81.362 263.167 81.2969 263.672 81.2969C264.693 81.2969 265.448 81.5234 265.938 81.9766C266.432 82.4297 266.68 83.1562 266.68 84.1562V90H265.719ZM262.789 89.0859C263.596 89.0859 264.229 88.8646 264.688 88.4219C265.151 87.9792 265.383 87.3594 265.383 86.5625V85.7891L264.086 85.8438C263.055 85.8802 262.31 86.0417 261.852 86.3281C261.398 86.6094 261.172 87.0495 261.172 87.6484C261.172 88.1172 261.312 88.474 261.594 88.7188C261.88 88.9635 262.279 89.0859 262.789 89.0859ZM274.883 87.6641C274.883 88.4609 274.586 89.0755 273.992 89.5078C273.398 89.9401 272.565 90.1562 271.492 90.1562C270.357 90.1562 269.471 89.9766 268.836 89.6172V88.4141C269.247 88.6224 269.688 88.7865 270.156 88.9062C270.63 89.026 271.086 89.0859 271.523 89.0859C272.201 89.0859 272.721 88.9792 273.086 88.7656C273.451 88.5469 273.633 88.2161 273.633 87.7734C273.633 87.4401 273.487 87.1562 273.195 86.9219C272.909 86.6823 272.346 86.401 271.508 86.0781C270.711 85.7812 270.143 85.5234 269.805 85.3047C269.471 85.0807 269.221 84.8281 269.055 84.5469C268.893 84.2656 268.812 83.9297 268.812 83.5391C268.812 82.8411 269.096 82.2917 269.664 81.8906C270.232 81.4844 271.01 81.2812 272 81.2812C272.922 81.2812 273.823 81.4688 274.703 81.8438L274.242 82.8984C273.383 82.5443 272.604 82.3672 271.906 82.3672C271.292 82.3672 270.828 82.4635 270.516 82.6562C270.203 82.849 270.047 83.1146 270.047 83.4531C270.047 83.6823 270.104 83.8776 270.219 84.0391C270.339 84.2005 270.529 84.3542 270.789 84.5C271.049 84.6458 271.549 84.8568 272.289 85.1328C273.305 85.5026 273.99 85.875 274.344 86.25C274.703 86.625 274.883 87.0964 274.883 87.6641ZM279.766 89.0859C279.995 89.0859 280.216 89.0703 280.43 89.0391C280.643 89.0026 280.812 88.9661 280.938 88.9297V89.9219C280.797 89.9896 280.589 90.0443 280.312 90.0859C280.042 90.1328 279.797 90.1562 279.578 90.1562C277.922 90.1562 277.094 89.2839 277.094 87.5391V82.4453H275.867V81.8203L277.094 81.2812L277.641 79.4531H278.391V81.4375H280.875V82.4453H278.391V87.4844C278.391 88 278.513 88.3958 278.758 88.6719C279.003 88.9479 279.339 89.0859 279.766 89.0859ZM288.031 81.4375V86.9922C288.031 87.6901 288.19 88.2109 288.508 88.5547C288.826 88.8984 289.323 89.0703 290 89.0703C290.896 89.0703 291.549 88.8255 291.961 88.3359C292.378 87.8464 292.586 87.0469 292.586 85.9375V81.4375H293.883V90H292.812L292.625 88.8516H292.555C292.289 89.2734 291.919 89.5964 291.445 89.8203C290.977 90.0443 290.44 90.1562 289.836 90.1562C288.794 90.1562 288.013 89.9089 287.492 89.4141C286.977 88.9193 286.719 88.1276 286.719 87.0391V81.4375H288.031ZM300.625 90.1562C300.068 90.1562 299.557 90.0547 299.094 89.8516C298.635 89.6432 298.25 89.3255 297.938 88.8984H297.844C297.906 89.3984 297.938 89.8724 297.938 90.3203V93.8438H296.641V81.4375H297.695L297.875 82.6094H297.938C298.271 82.1406 298.659 81.8021 299.102 81.5938C299.544 81.3854 300.052 81.2812 300.625 81.2812C301.76 81.2812 302.635 81.6693 303.25 82.4453C303.87 83.2214 304.18 84.3099 304.18 85.7109C304.18 87.1172 303.865 88.2109 303.234 88.9922C302.609 89.7682 301.74 90.1562 300.625 90.1562ZM300.438 82.3828C299.562 82.3828 298.93 82.625 298.539 83.1094C298.148 83.5938 297.948 84.3646 297.938 85.4219V85.7109C297.938 86.9141 298.138 87.776 298.539 88.2969C298.94 88.8125 299.583 89.0703 300.469 89.0703C301.208 89.0703 301.786 88.7708 302.203 88.1719C302.625 87.5729 302.836 86.7474 302.836 85.6953C302.836 84.6276 302.625 83.8099 302.203 83.2422C301.786 82.6693 301.198 82.3828 300.438 82.3828ZM313.844 85.7109C313.844 87.1068 313.492 88.1979 312.789 88.9844C312.086 89.7656 311.115 90.1562 309.875 90.1562C309.109 90.1562 308.43 89.9766 307.836 89.6172C307.242 89.2578 306.784 88.7422 306.461 88.0703C306.138 87.3984 305.977 86.612 305.977 85.7109C305.977 84.3151 306.326 83.2292 307.023 82.4531C307.721 81.6719 308.69 81.2812 309.93 81.2812C311.128 81.2812 312.078 81.6797 312.781 82.4766C313.49 83.2734 313.844 84.3516 313.844 85.7109ZM307.32 85.7109C307.32 86.8047 307.539 87.638 307.977 88.2109C308.414 88.7839 309.057 89.0703 309.906 89.0703C310.755 89.0703 311.398 88.7865 311.836 88.2188C312.279 87.6458 312.5 86.8099 312.5 85.7109C312.5 84.6224 312.279 83.7969 311.836 83.2344C311.398 82.6667 310.75 82.3828 309.891 82.3828C309.042 82.3828 308.401 82.6615 307.969 83.2188C307.536 83.776 307.32 84.6068 307.32 85.7109ZM321.984 90V84.4609C321.984 83.763 321.826 83.2422 321.508 82.8984C321.19 82.5547 320.693 82.3828 320.016 82.3828C319.12 82.3828 318.464 82.625 318.047 83.1094C317.63 83.5938 317.422 84.3932 317.422 85.5078V90H316.125V81.4375H317.18L317.391 82.6094H317.453C317.719 82.1875 318.091 81.862 318.57 81.6328C319.049 81.3984 319.583 81.2812 320.172 81.2812C321.203 81.2812 321.979 81.5312 322.5 82.0312C323.021 82.526 323.281 83.3203 323.281 84.4141V90H321.984ZM335.969 90V84.4609C335.969 83.763 335.81 83.2422 335.492 82.8984C335.174 82.5547 334.677 82.3828 334 82.3828C333.099 82.3828 332.44 82.6276 332.023 83.1172C331.612 83.6068 331.406 84.4089 331.406 85.5234V90H330.109V77.8438H331.406V81.5234C331.406 81.9661 331.385 82.3333 331.344 82.625H331.422C331.677 82.2135 332.039 81.8906 332.508 81.6562C332.982 81.4167 333.521 81.2969 334.125 81.2969C335.172 81.2969 335.956 81.5469 336.477 82.0469C337.003 82.5417 337.266 83.3307 337.266 84.4141V90H335.969ZM343.555 90.1562C342.289 90.1562 341.289 89.7708 340.555 89C339.826 88.2292 339.461 87.1589 339.461 85.7891C339.461 84.4089 339.799 83.3125 340.477 82.5C341.159 81.6875 342.073 81.2812 343.219 81.2812C344.292 81.2812 345.141 81.6354 345.766 82.3438C346.391 83.0469 346.703 83.9766 346.703 85.1328V85.9531H340.805C340.831 86.9583 341.083 87.7214 341.562 88.2422C342.047 88.763 342.727 89.0234 343.602 89.0234C344.523 89.0234 345.435 88.8307 346.336 88.4453V89.6016C345.878 89.7995 345.443 89.9401 345.031 90.0234C344.625 90.112 344.133 90.1562 343.555 90.1562ZM343.203 82.3672C342.516 82.3672 341.966 82.5911 341.555 83.0391C341.148 83.487 340.909 84.1068 340.836 84.8984H345.312C345.312 84.0807 345.13 83.4557 344.766 83.0234C344.401 82.5859 343.88 82.3672 343.203 82.3672ZM358.602 87.6641C358.602 88.4609 358.305 89.0755 357.711 89.5078C357.117 89.9401 356.284 90.1562 355.211 90.1562C354.076 90.1562 353.19 89.9766 352.555 89.6172V88.4141C352.966 88.6224 353.406 88.7865 353.875 88.9062C354.349 89.026 354.805 89.0859 355.242 89.0859C355.919 89.0859 356.44 88.9792 356.805 88.7656C357.169 88.5469 357.352 88.2161 357.352 87.7734C357.352 87.4401 357.206 87.1562 356.914 86.9219C356.628 86.6823 356.065 86.401 355.227 86.0781C354.43 85.7812 353.862 85.5234 353.523 85.3047C353.19 85.0807 352.94 84.8281 352.773 84.5469C352.612 84.2656 352.531 83.9297 352.531 83.5391C352.531 82.8411 352.815 82.2917 353.383 81.8906C353.951 81.4844 354.729 81.2812 355.719 81.2812C356.641 81.2812 357.542 81.4688 358.422 81.8438L357.961 82.8984C357.102 82.5443 356.323 82.3672 355.625 82.3672C355.01 82.3672 354.547 82.4635 354.234 82.6562C353.922 82.849 353.766 83.1146 353.766 83.4531C353.766 83.6823 353.823 83.8776 353.938 84.0391C354.057 84.2005 354.247 84.3542 354.508 84.5C354.768 84.6458 355.268 84.8568 356.008 85.1328C357.023 85.5026 357.708 85.875 358.062 86.25C358.422 86.625 358.602 87.0964 358.602 87.6641ZM365.984 90L365.727 88.7812H365.664C365.237 89.3177 364.81 89.6823 364.383 89.875C363.961 90.0625 363.432 90.1562 362.797 90.1562C361.948 90.1562 361.281 89.9375 360.797 89.5C360.318 89.0625 360.078 88.4401 360.078 87.6328C360.078 85.9036 361.461 84.9974 364.227 84.9141L365.68 84.8672V84.3359C365.68 83.6641 365.534 83.1693 365.242 82.8516C364.956 82.5286 364.495 82.3672 363.859 82.3672C363.146 82.3672 362.339 82.5859 361.438 83.0234L361.039 82.0312C361.461 81.8021 361.922 81.6224 362.422 81.4922C362.927 81.362 363.432 81.2969 363.938 81.2969C364.958 81.2969 365.714 81.5234 366.203 81.9766C366.698 82.4297 366.945 83.1562 366.945 84.1562V90H365.984ZM363.055 89.0859C363.862 89.0859 364.495 88.8646 364.953 88.4219C365.417 87.9792 365.648 87.3594 365.648 86.5625V85.7891L364.352 85.8438C363.32 85.8802 362.576 86.0417 362.117 86.3281C361.664 86.6094 361.438 87.0495 361.438 87.6484C361.438 88.1172 361.578 88.474 361.859 88.7188C362.146 88.9635 362.544 89.0859 363.055 89.0859ZM380.539 90V84.4297C380.539 83.7474 380.393 83.237 380.102 82.8984C379.81 82.5547 379.357 82.3828 378.742 82.3828C377.935 82.3828 377.339 82.6146 376.953 83.0781C376.568 83.5417 376.375 84.2552 376.375 85.2188V90H375.078V84.4297C375.078 83.7474 374.932 83.237 374.641 82.8984C374.349 82.5547 373.893 82.3828 373.273 82.3828C372.461 82.3828 371.865 82.6276 371.484 83.1172C371.109 83.6016 370.922 84.3984 370.922 85.5078V90H369.625V81.4375H370.68L370.891 82.6094H370.953C371.198 82.1927 371.542 81.8672 371.984 81.6328C372.432 81.3984 372.932 81.2812 373.484 81.2812C374.823 81.2812 375.698 81.7656 376.109 82.7344H376.172C376.427 82.2865 376.797 81.9323 377.281 81.6719C377.766 81.4115 378.318 81.2812 378.938 81.2812C379.906 81.2812 380.63 81.5312 381.109 82.0312C381.594 82.526 381.836 83.3203 381.836 84.4141V90H380.539ZM388.133 90.1562C386.867 90.1562 385.867 89.7708 385.133 89C384.404 88.2292 384.039 87.1589 384.039 85.7891C384.039 84.4089 384.378 83.3125 385.055 82.5C385.737 81.6875 386.651 81.2812 387.797 81.2812C388.87 81.2812 389.719 81.6354 390.344 82.3438C390.969 83.0469 391.281 83.9766 391.281 85.1328V85.9531H385.383C385.409 86.9583 385.661 87.7214 386.141 88.2422C386.625 88.763 387.305 89.0234 388.18 89.0234C389.102 89.0234 390.013 88.8307 390.914 88.4453V89.6016C390.456 89.7995 390.021 89.9401 389.609 90.0234C389.203 90.112 388.711 90.1562 388.133 90.1562ZM387.781 82.3672C387.094 82.3672 386.544 82.5911 386.133 83.0391C385.727 83.487 385.487 84.1068 385.414 84.8984H389.891C389.891 84.0807 389.708 83.4557 389.344 83.0234C388.979 82.5859 388.458 82.3672 387.781 82.3672ZM402.922 90L402.664 88.7812H402.602C402.174 89.3177 401.747 89.6823 401.32 89.875C400.898 90.0625 400.37 90.1562 399.734 90.1562C398.885 90.1562 398.219 89.9375 397.734 89.5C397.255 89.0625 397.016 88.4401 397.016 87.6328C397.016 85.9036 398.398 84.9974 401.164 84.9141L402.617 84.8672V84.3359C402.617 83.6641 402.471 83.1693 402.18 82.8516C401.893 82.5286 401.432 82.3672 400.797 82.3672C400.083 82.3672 399.276 82.5859 398.375 83.0234L397.977 82.0312C398.398 81.8021 398.859 81.6224 399.359 81.4922C399.865 81.362 400.37 81.2969 400.875 81.2969C401.896 81.2969 402.651 81.5234 403.141 81.9766C403.635 82.4297 403.883 83.1562 403.883 84.1562V90H402.922ZM399.992 89.0859C400.799 89.0859 401.432 88.8646 401.891 88.4219C402.354 87.9792 402.586 87.3594 402.586 86.5625V85.7891L401.289 85.8438C400.258 85.8802 399.513 86.0417 399.055 86.3281C398.602 86.6094 398.375 87.0495 398.375 87.6484C398.375 88.1172 398.516 88.474 398.797 88.7188C399.083 88.9635 399.482 89.0859 399.992 89.0859ZM412.086 87.6641C412.086 88.4609 411.789 89.0755 411.195 89.5078C410.602 89.9401 409.768 90.1562 408.695 90.1562C407.56 90.1562 406.674 89.9766 406.039 89.6172V88.4141C406.451 88.6224 406.891 88.7865 407.359 88.9062C407.833 89.026 408.289 89.0859 408.727 89.0859C409.404 89.0859 409.924 88.9792 410.289 88.7656C410.654 88.5469 410.836 88.2161 410.836 87.7734C410.836 87.4401 410.69 87.1562 410.398 86.9219C410.112 86.6823 409.549 86.401 408.711 86.0781C407.914 85.7812 407.346 85.5234 407.008 85.3047C406.674 85.0807 406.424 84.8281 406.258 84.5469C406.096 84.2656 406.016 83.9297 406.016 83.5391C406.016 82.8411 406.299 82.2917 406.867 81.8906C407.435 81.4844 408.214 81.2812 409.203 81.2812C410.125 81.2812 411.026 81.4688 411.906 81.8438L411.445 82.8984C410.586 82.5443 409.807 82.3672 409.109 82.3672C408.495 82.3672 408.031 82.4635 407.719 82.6562C407.406 82.849 407.25 83.1146 407.25 83.4531C407.25 83.6823 407.307 83.8776 407.422 84.0391C407.542 84.2005 407.732 84.3542 407.992 84.5C408.253 84.6458 408.753 84.8568 409.492 85.1328C410.508 85.5026 411.193 85.875 411.547 86.25C411.906 86.625 412.086 87.0964 412.086 87.6641ZM419.641 85.6172C419.865 85.2995 420.206 84.8828 420.664 84.3672L423.43 81.4375H424.969L421.5 85.0859L425.211 90H423.641L420.617 85.9531L419.641 86.7969V90H418.359V77.8438H419.641V84.2891C419.641 84.5755 419.62 85.0182 419.578 85.6172H419.641ZM432.625 90V84.4609C432.625 83.763 432.466 83.2422 432.148 82.8984C431.831 82.5547 431.333 82.3828 430.656 82.3828C429.76 82.3828 429.104 82.625 428.688 83.1094C428.271 83.5938 428.062 84.3932 428.062 85.5078V90H426.766V81.4375H427.82L428.031 82.6094H428.094C428.359 82.1875 428.732 81.862 429.211 81.6328C429.69 81.3984 430.224 81.2812 430.812 81.2812C431.844 81.2812 432.62 81.5312 433.141 82.0312C433.661 82.526 433.922 83.3203 433.922 84.4141V90H432.625ZM440.211 90.1562C438.945 90.1562 437.945 89.7708 437.211 89C436.482 88.2292 436.117 87.1589 436.117 85.7891C436.117 84.4089 436.456 83.3125 437.133 82.5C437.815 81.6875 438.729 81.2812 439.875 81.2812C440.948 81.2812 441.797 81.6354 442.422 82.3438C443.047 83.0469 443.359 83.9766 443.359 85.1328V85.9531H437.461C437.487 86.9583 437.74 87.7214 438.219 88.2422C438.703 88.763 439.383 89.0234 440.258 89.0234C441.18 89.0234 442.091 88.8307 442.992 88.4453V89.6016C442.534 89.7995 442.099 89.9401 441.688 90.0234C441.281 90.112 440.789 90.1562 440.211 90.1562ZM439.859 82.3672C439.172 82.3672 438.622 82.5911 438.211 83.0391C437.805 83.487 437.565 84.1068 437.492 84.8984H441.969C441.969 84.0807 441.786 83.4557 441.422 83.0234C441.057 82.5859 440.536 82.3672 439.859 82.3672ZM452.57 90L451 84.9766C450.901 84.6693 450.716 83.9714 450.445 82.8828H450.383C450.174 83.7943 449.992 84.4974 449.836 84.9922L448.219 90H446.719L444.383 81.4375H445.742C446.294 83.5885 446.714 85.2266 447 86.3516C447.292 87.4766 447.458 88.2344 447.5 88.625H447.562C447.62 88.3281 447.711 87.9453 447.836 87.4766C447.966 87.0026 448.078 86.6276 448.172 86.3516L449.742 81.4375H451.148L452.68 86.3516C452.971 87.2474 453.169 88 453.273 88.6094H453.336C453.357 88.4219 453.411 88.1328 453.5 87.7422C453.594 87.3516 454.138 85.25 455.133 81.4375H456.477L454.109 90H452.57ZM71.2344 122V116.461C71.2344 115.763 71.0755 115.242 70.7578 114.898C70.4401 114.555 69.9427 114.383 69.2656 114.383C68.3698 114.383 67.7135 114.625 67.2969 115.109C66.8802 115.594 66.6719 116.393 66.6719 117.508V122H65.375V113.438H66.4297L66.6406 114.609H66.7031C66.9688 114.188 67.3411 113.862 67.8203 113.633C68.2995 113.398 68.8333 113.281 69.4219 113.281C70.4531 113.281 71.2292 113.531 71.75 114.031C72.2708 114.526 72.5312 115.32 72.5312 116.414V122H71.2344ZM78.8203 122.156C77.5547 122.156 76.5547 121.771 75.8203 121C75.0911 120.229 74.7266 119.159 74.7266 117.789C74.7266 116.409 75.0651 115.312 75.7422 114.5C76.4245 113.688 77.3385 113.281 78.4844 113.281C79.5573 113.281 80.4062 113.635 81.0312 114.344C81.6562 115.047 81.9688 115.977 81.9688 117.133V117.953H76.0703C76.0964 118.958 76.349 119.721 76.8281 120.242C77.3125 120.763 77.9922 121.023 78.8672 121.023C79.7891 121.023 80.7005 120.831 81.6016 120.445V121.602C81.1432 121.799 80.7083 121.94 80.2969 122.023C79.8906 122.112 79.3984 122.156 78.8203 122.156ZM78.4688 114.367C77.7812 114.367 77.2318 114.591 76.8203 115.039C76.4141 115.487 76.1745 116.107 76.1016 116.898H80.5781C80.5781 116.081 80.3958 115.456 80.0312 115.023C79.6667 114.586 79.1458 114.367 78.4688 114.367ZM86.25 117.617L83.2734 113.438H84.75L87.0078 116.719L89.2578 113.438H90.7188L87.7422 117.617L90.875 122H89.4062L87.0078 118.531L84.5859 122H83.1172L86.25 117.617ZM95.3438 121.086C95.5729 121.086 95.7943 121.07 96.0078 121.039C96.2214 121.003 96.3906 120.966 96.5156 120.93V121.922C96.375 121.99 96.1667 122.044 95.8906 122.086C95.6198 122.133 95.375 122.156 95.1562 122.156C93.5 122.156 92.6719 121.284 92.6719 119.539V114.445H91.4453V113.82L92.6719 113.281L93.2188 111.453H93.9688V113.438H96.4531V114.445H93.9688V119.484C93.9688 120 94.0911 120.396 94.3359 120.672C94.5807 120.948 94.9167 121.086 95.3438 121.086ZM98.0469 121.172C98.0469 120.823 98.125 120.56 98.2812 120.383C98.4427 120.201 98.6719 120.109 98.9688 120.109C99.2708 120.109 99.5052 120.201 99.6719 120.383C99.8438 120.56 99.9297 120.823 99.9297 121.172C99.9297 121.51 99.8438 121.771 99.6719 121.953C99.5 122.135 99.2656 122.227 98.9688 122.227C98.7031 122.227 98.4818 122.146 98.3047 121.984C98.1328 121.818 98.0469 121.547 98.0469 121.172ZM116.766 116.273C116.766 118.102 116.302 119.539 115.375 120.586C114.453 121.633 113.169 122.156 111.523 122.156C109.841 122.156 108.542 121.643 107.625 120.617C106.714 119.586 106.258 118.133 106.258 116.258C106.258 114.398 106.716 112.958 107.633 111.938C108.549 110.911 109.852 110.398 111.539 110.398C113.18 110.398 114.461 110.919 115.383 111.961C116.305 113.003 116.766 114.44 116.766 116.273ZM107.664 116.273C107.664 117.82 107.992 118.995 108.648 119.797C109.31 120.594 110.268 120.992 111.523 120.992C112.789 120.992 113.745 120.594 114.391 119.797C115.036 119 115.359 117.826 115.359 116.273C115.359 114.737 115.036 113.573 114.391 112.781C113.75 111.984 112.799 111.586 111.539 111.586C110.273 111.586 109.31 111.987 108.648 112.789C107.992 113.586 107.664 114.747 107.664 116.273ZM122.984 114.445H120.805V122H119.508V114.445H117.977V113.859L119.508 113.391V112.914C119.508 110.81 120.427 109.758 122.266 109.758C122.719 109.758 123.25 109.849 123.859 110.031L123.523 111.07C123.023 110.909 122.596 110.828 122.242 110.828C121.753 110.828 121.391 110.992 121.156 111.32C120.922 111.643 120.805 112.164 120.805 112.883V113.438H122.984V114.445ZM132.688 113.297C133.812 113.297 134.685 113.682 135.305 114.453C135.93 115.219 136.242 116.305 136.242 117.711C136.242 119.117 135.927 120.211 135.297 120.992C134.672 121.768 133.802 122.156 132.688 122.156C132.13 122.156 131.62 122.055 131.156 121.852C130.698 121.643 130.312 121.326 130 120.898H129.906L129.633 122H128.703V109.844H130V112.797C130 113.458 129.979 114.052 129.938 114.578H130C130.604 113.724 131.5 113.297 132.688 113.297ZM132.5 114.383C131.615 114.383 130.977 114.638 130.586 115.148C130.195 115.654 130 116.508 130 117.711C130 118.914 130.201 119.776 130.602 120.297C131.003 120.812 131.646 121.07 132.531 121.07C133.328 121.07 133.922 120.781 134.312 120.203C134.703 119.62 134.898 118.784 134.898 117.695C134.898 116.581 134.703 115.75 134.312 115.203C133.922 114.656 133.318 114.383 132.5 114.383ZM142.133 122.156C140.867 122.156 139.867 121.771 139.133 121C138.404 120.229 138.039 119.159 138.039 117.789C138.039 116.409 138.378 115.312 139.055 114.5C139.737 113.688 140.651 113.281 141.797 113.281C142.87 113.281 143.719 113.635 144.344 114.344C144.969 115.047 145.281 115.977 145.281 117.133V117.953H139.383C139.409 118.958 139.661 119.721 140.141 120.242C140.625 120.763 141.305 121.023 142.18 121.023C143.102 121.023 144.013 120.831 144.914 120.445V121.602C144.456 121.799 144.021 121.94 143.609 122.023C143.203 122.112 142.711 122.156 142.133 122.156ZM141.781 114.367C141.094 114.367 140.544 114.591 140.133 115.039C139.727 115.487 139.487 116.107 139.414 116.898H143.891C143.891 116.081 143.708 115.456 143.344 115.023C142.979 114.586 142.458 114.367 141.781 114.367ZM148.797 122H147.5V109.844H148.797V122ZM152.844 122H151.547V113.438H152.844V122ZM151.438 111.117C151.438 110.82 151.51 110.604 151.656 110.469C151.802 110.328 151.984 110.258 152.203 110.258C152.411 110.258 152.591 110.328 152.742 110.469C152.893 110.609 152.969 110.826 152.969 111.117C152.969 111.409 152.893 111.628 152.742 111.773C152.591 111.914 152.411 111.984 152.203 111.984C151.984 111.984 151.802 111.914 151.656 111.773C151.51 111.628 151.438 111.409 151.438 111.117ZM159.211 122.156C157.945 122.156 156.945 121.771 156.211 121C155.482 120.229 155.117 119.159 155.117 117.789C155.117 116.409 155.456 115.312 156.133 114.5C156.815 113.688 157.729 113.281 158.875 113.281C159.948 113.281 160.797 113.635 161.422 114.344C162.047 115.047 162.359 115.977 162.359 117.133V117.953H156.461C156.487 118.958 156.74 119.721 157.219 120.242C157.703 120.763 158.383 121.023 159.258 121.023C160.18 121.023 161.091 120.831 161.992 120.445V121.602C161.534 121.799 161.099 121.94 160.688 122.023C160.281 122.112 159.789 122.156 159.211 122.156ZM158.859 114.367C158.172 114.367 157.622 114.591 157.211 115.039C156.805 115.487 156.565 116.107 156.492 116.898H160.969C160.969 116.081 160.786 115.456 160.422 115.023C160.057 114.586 159.536 114.367 158.859 114.367ZM166.453 122L163.203 113.438H164.594L166.438 118.516C166.854 119.703 167.099 120.474 167.172 120.828H167.234C167.292 120.552 167.471 119.982 167.773 119.117C168.081 118.247 168.766 116.354 169.828 113.438H171.219L167.969 122H166.453ZM176.211 122.156C174.945 122.156 173.945 121.771 173.211 121C172.482 120.229 172.117 119.159 172.117 117.789C172.117 116.409 172.456 115.312 173.133 114.5C173.815 113.688 174.729 113.281 175.875 113.281C176.948 113.281 177.797 113.635 178.422 114.344C179.047 115.047 179.359 115.977 179.359 117.133V117.953H173.461C173.487 118.958 173.74 119.721 174.219 120.242C174.703 120.763 175.383 121.023 176.258 121.023C177.18 121.023 178.091 120.831 178.992 120.445V121.602C178.534 121.799 178.099 121.94 177.688 122.023C177.281 122.112 176.789 122.156 176.211 122.156ZM175.859 114.367C175.172 114.367 174.622 114.591 174.211 115.039C173.805 115.487 173.565 116.107 173.492 116.898H177.969C177.969 116.081 177.786 115.456 177.422 115.023C177.057 114.586 176.536 114.367 175.859 114.367ZM187.406 120.852H187.336C186.737 121.721 185.841 122.156 184.648 122.156C183.529 122.156 182.656 121.773 182.031 121.008C181.411 120.242 181.102 119.154 181.102 117.742C181.102 116.331 181.414 115.234 182.039 114.453C182.664 113.672 183.534 113.281 184.648 113.281C185.81 113.281 186.701 113.703 187.32 114.547H187.422L187.367 113.93L187.336 113.328V109.844H188.633V122H187.578L187.406 120.852ZM184.812 121.07C185.698 121.07 186.339 120.831 186.734 120.352C187.135 119.867 187.336 119.089 187.336 118.016V117.742C187.336 116.529 187.133 115.664 186.727 115.148C186.326 114.628 185.682 114.367 184.797 114.367C184.036 114.367 183.453 114.664 183.047 115.258C182.646 115.846 182.445 116.68 182.445 117.758C182.445 118.852 182.646 119.677 183.047 120.234C183.448 120.792 184.036 121.07 184.812 121.07ZM202.938 117.711C202.938 119.107 202.586 120.198 201.883 120.984C201.18 121.766 200.208 122.156 198.969 122.156C198.203 122.156 197.523 121.977 196.93 121.617C196.336 121.258 195.878 120.742 195.555 120.07C195.232 119.398 195.07 118.612 195.07 117.711C195.07 116.315 195.419 115.229 196.117 114.453C196.815 113.672 197.784 113.281 199.023 113.281C200.221 113.281 201.172 113.68 201.875 114.477C202.583 115.273 202.938 116.352 202.938 117.711ZM196.414 117.711C196.414 118.805 196.633 119.638 197.07 120.211C197.508 120.784 198.151 121.07 199 121.07C199.849 121.07 200.492 120.786 200.93 120.219C201.372 119.646 201.594 118.81 201.594 117.711C201.594 116.622 201.372 115.797 200.93 115.234C200.492 114.667 199.844 114.383 198.984 114.383C198.135 114.383 197.495 114.661 197.062 115.219C196.63 115.776 196.414 116.607 196.414 117.711ZM209.125 113.281C209.505 113.281 209.846 113.312 210.148 113.375L209.969 114.578C209.615 114.5 209.302 114.461 209.031 114.461C208.339 114.461 207.745 114.742 207.25 115.305C206.76 115.867 206.516 116.568 206.516 117.406V122H205.219V113.438H206.289L206.438 115.023H206.5C206.818 114.466 207.201 114.036 207.648 113.734C208.096 113.432 208.589 113.281 209.125 113.281ZM221.734 120.852H221.664C221.065 121.721 220.169 122.156 218.977 122.156C217.857 122.156 216.984 121.773 216.359 121.008C215.74 120.242 215.43 119.154 215.43 117.742C215.43 116.331 215.742 115.234 216.367 114.453C216.992 113.672 217.862 113.281 218.977 113.281C220.138 113.281 221.029 113.703 221.648 114.547H221.75L221.695 113.93L221.664 113.328V109.844H222.961V122H221.906L221.734 120.852ZM219.141 121.07C220.026 121.07 220.667 120.831 221.062 120.352C221.464 119.867 221.664 119.089 221.664 118.016V117.742C221.664 116.529 221.461 115.664 221.055 115.148C220.654 114.628 220.01 114.367 219.125 114.367C218.365 114.367 217.781 114.664 217.375 115.258C216.974 115.846 216.773 116.68 216.773 117.758C216.773 118.852 216.974 119.677 217.375 120.234C217.776 120.792 218.365 121.07 219.141 121.07ZM227.016 122H225.719V113.438H227.016V122ZM225.609 111.117C225.609 110.82 225.682 110.604 225.828 110.469C225.974 110.328 226.156 110.258 226.375 110.258C226.583 110.258 226.763 110.328 226.914 110.469C227.065 110.609 227.141 110.826 227.141 111.117C227.141 111.409 227.065 111.628 226.914 111.773C226.763 111.914 226.583 111.984 226.375 111.984C226.156 111.984 225.974 111.914 225.828 111.773C225.682 111.628 225.609 111.409 225.609 111.117ZM231.641 122L228.391 113.438H229.781L231.625 118.516C232.042 119.703 232.286 120.474 232.359 120.828H232.422C232.479 120.552 232.659 119.982 232.961 119.117C233.268 118.247 233.953 116.354 235.016 113.438H236.406L233.156 122H231.641ZM241.398 122.156C240.133 122.156 239.133 121.771 238.398 121C237.669 120.229 237.305 119.159 237.305 117.789C237.305 116.409 237.643 115.312 238.32 114.5C239.003 113.688 239.917 113.281 241.062 113.281C242.135 113.281 242.984 113.635 243.609 114.344C244.234 115.047 244.547 115.977 244.547 117.133V117.953H238.648C238.674 118.958 238.927 119.721 239.406 120.242C239.891 120.763 240.57 121.023 241.445 121.023C242.367 121.023 243.279 120.831 244.18 120.445V121.602C243.721 121.799 243.286 121.94 242.875 122.023C242.469 122.112 241.977 122.156 241.398 122.156ZM241.047 114.367C240.359 114.367 239.81 114.591 239.398 115.039C238.992 115.487 238.753 116.107 238.68 116.898H243.156C243.156 116.081 242.974 115.456 242.609 115.023C242.245 114.586 241.724 114.367 241.047 114.367ZM250.672 113.281C251.052 113.281 251.393 113.312 251.695 113.375L251.516 114.578C251.161 114.5 250.849 114.461 250.578 114.461C249.885 114.461 249.292 114.742 248.797 115.305C248.307 115.867 248.062 116.568 248.062 117.406V122H246.766V113.438H247.836L247.984 115.023H248.047C248.365 114.466 248.747 114.036 249.195 113.734C249.643 113.432 250.135 113.281 250.672 113.281ZM256.062 121.086C256.292 121.086 256.513 121.07 256.727 121.039C256.94 121.003 257.109 120.966 257.234 120.93V121.922C257.094 121.99 256.885 122.044 256.609 122.086C256.339 122.133 256.094 122.156 255.875 122.156C254.219 122.156 253.391 121.284 253.391 119.539V114.445H252.164V113.82L253.391 113.281L253.938 111.453H254.688V113.438H257.172V114.445H254.688V119.484C254.688 120 254.81 120.396 255.055 120.672C255.299 120.948 255.635 121.086 256.062 121.086ZM262.57 122.156C261.305 122.156 260.305 121.771 259.57 121C258.841 120.229 258.477 119.159 258.477 117.789C258.477 116.409 258.815 115.312 259.492 114.5C260.174 113.688 261.089 113.281 262.234 113.281C263.307 113.281 264.156 113.635 264.781 114.344C265.406 115.047 265.719 115.977 265.719 117.133V117.953H259.82C259.846 118.958 260.099 119.721 260.578 120.242C261.062 120.763 261.742 121.023 262.617 121.023C263.539 121.023 264.451 120.831 265.352 120.445V121.602C264.893 121.799 264.458 121.94 264.047 122.023C263.641 122.112 263.148 122.156 262.57 122.156ZM262.219 114.367C261.531 114.367 260.982 114.591 260.57 115.039C260.164 115.487 259.924 116.107 259.852 116.898H264.328C264.328 116.081 264.146 115.456 263.781 115.023C263.417 114.586 262.896 114.367 262.219 114.367ZM273.766 120.852H273.695C273.096 121.721 272.201 122.156 271.008 122.156C269.888 122.156 269.016 121.773 268.391 121.008C267.771 120.242 267.461 119.154 267.461 117.742C267.461 116.331 267.773 115.234 268.398 114.453C269.023 113.672 269.893 113.281 271.008 113.281C272.169 113.281 273.06 113.703 273.68 114.547H273.781L273.727 113.93L273.695 113.328V109.844H274.992V122H273.938L273.766 120.852ZM271.172 121.07C272.057 121.07 272.698 120.831 273.094 120.352C273.495 119.867 273.695 119.089 273.695 118.016V117.742C273.695 116.529 273.492 115.664 273.086 115.148C272.685 114.628 272.042 114.367 271.156 114.367C270.396 114.367 269.812 114.664 269.406 115.258C269.005 115.846 268.805 116.68 268.805 117.758C268.805 118.852 269.005 119.677 269.406 120.234C269.807 120.792 270.396 121.07 271.172 121.07ZM287.766 122V116.461C287.766 115.763 287.607 115.242 287.289 114.898C286.971 114.555 286.474 114.383 285.797 114.383C284.901 114.383 284.245 114.625 283.828 115.109C283.411 115.594 283.203 116.393 283.203 117.508V122H281.906V113.438H282.961L283.172 114.609H283.234C283.5 114.188 283.872 113.862 284.352 113.633C284.831 113.398 285.365 113.281 285.953 113.281C286.984 113.281 287.76 113.531 288.281 114.031C288.802 114.526 289.062 115.32 289.062 116.414V122H287.766ZM299.125 117.711C299.125 119.107 298.773 120.198 298.07 120.984C297.367 121.766 296.396 122.156 295.156 122.156C294.391 122.156 293.711 121.977 293.117 121.617C292.523 121.258 292.065 120.742 291.742 120.07C291.419 119.398 291.258 118.612 291.258 117.711C291.258 116.315 291.607 115.229 292.305 114.453C293.003 113.672 293.971 113.281 295.211 113.281C296.409 113.281 297.359 113.68 298.062 114.477C298.771 115.273 299.125 116.352 299.125 117.711ZM292.602 117.711C292.602 118.805 292.82 119.638 293.258 120.211C293.695 120.784 294.339 121.07 295.188 121.07C296.036 121.07 296.68 120.786 297.117 120.219C297.56 119.646 297.781 118.81 297.781 117.711C297.781 116.622 297.56 115.797 297.117 115.234C296.68 114.667 296.031 114.383 295.172 114.383C294.323 114.383 293.682 114.661 293.25 115.219C292.818 115.776 292.602 116.607 292.602 117.711ZM301.219 121.172C301.219 120.823 301.297 120.56 301.453 120.383C301.615 120.201 301.844 120.109 302.141 120.109C302.443 120.109 302.677 120.201 302.844 120.383C303.016 120.56 303.102 120.823 303.102 121.172C303.102 121.51 303.016 121.771 302.844 121.953C302.672 122.135 302.438 122.227 302.141 122.227C301.875 122.227 301.654 122.146 301.477 121.984C301.305 121.818 301.219 121.547 301.219 121.172ZM306.711 110.578L306.828 110.75C306.693 111.271 306.497 111.878 306.242 112.57C305.987 113.258 305.721 113.898 305.445 114.492H304.492C304.857 113.008 305.122 111.703 305.289 110.578H306.711ZM309.594 110.578L309.703 110.75C309.578 111.224 309.391 111.807 309.141 112.5C308.891 113.193 308.62 113.857 308.328 114.492H307.352C307.487 113.971 307.641 113.31 307.812 112.508C307.984 111.706 308.104 111.062 308.172 110.578H309.594Z" fill="#4E4E73"/>
<path opacity="0.5" d="M64.63 189.7C64.63 188.464 64.906 187.36 65.458 186.388C66.022 185.404 66.784 184.642 67.744 184.102C68.716 183.55 69.802 183.274 71.002 183.274C72.406 183.274 73.636 183.634 74.692 184.354C75.748 185.074 76.486 186.07 76.906 187.342H74.008C73.72 186.742 73.312 186.292 72.784 185.992C72.268 185.692 71.668 185.542 70.984 185.542C70.252 185.542 69.598 185.716 69.022 186.064C68.458 186.4 68.014 186.88 67.69 187.504C67.378 188.128 67.222 188.86 67.222 189.7C67.222 190.528 67.378 191.26 67.69 191.896C68.014 192.52 68.458 193.006 69.022 193.354C69.598 193.69 70.252 193.858 70.984 193.858C71.668 193.858 72.268 193.708 72.784 193.408C73.312 193.096 73.72 192.64 74.008 192.04H76.906C76.486 193.324 75.748 194.326 74.692 195.046C73.648 195.754 72.418 196.108 71.002 196.108C69.802 196.108 68.716 195.838 67.744 195.298C66.784 194.746 66.022 193.984 65.458 193.012C64.906 192.04 64.63 190.936 64.63 189.7ZM84.6744 185.884C85.4304 185.884 86.1024 186.052 86.6904 186.388C87.2784 186.712 87.7344 187.198 88.0584 187.846C88.3944 188.482 88.5624 189.25 88.5624 190.15V196H86.0424V190.492C86.0424 189.7 85.8444 189.094 85.4484 188.674C85.0524 188.242 84.5124 188.026 83.8284 188.026C83.1324 188.026 82.5804 188.242 82.1724 188.674C81.7764 189.094 81.5784 189.7 81.5784 190.492V196H79.0584V182.68H81.5784V187.27C81.9024 186.838 82.3344 186.502 82.8744 186.262C83.4144 186.01 84.0144 185.884 84.6744 185.884ZM93.4788 187.576C93.8028 187.048 94.2228 186.634 94.7388 186.334C95.2668 186.034 95.8668 185.884 96.5388 185.884V188.53H95.8728C95.0808 188.53 94.4808 188.716 94.0728 189.088C93.6768 189.46 93.4788 190.108 93.4788 191.032V196H90.9588V186.028H93.4788V187.576ZM99.5141 184.84C99.0701 184.84 98.6981 184.702 98.3981 184.426C98.1101 184.138 97.9661 183.784 97.9661 183.364C97.9661 182.944 98.1101 182.596 98.3981 182.32C98.6981 182.032 99.0701 181.888 99.5141 181.888C99.9581 181.888 100.324 182.032 100.612 182.32C100.912 182.596 101.062 182.944 101.062 183.364C101.062 183.784 100.912 184.138 100.612 184.426C100.324 184.702 99.9581 184.84 99.5141 184.84ZM100.756 186.028V196H98.2361V186.028H100.756ZM107.062 196.162C106.246 196.162 105.514 196.018 104.866 195.73C104.218 195.43 103.702 195.028 103.318 194.524C102.946 194.02 102.742 193.462 102.706 192.85H105.244C105.292 193.234 105.478 193.552 105.802 193.804C106.138 194.056 106.552 194.182 107.044 194.182C107.524 194.182 107.896 194.086 108.16 193.894C108.436 193.702 108.574 193.456 108.574 193.156C108.574 192.832 108.406 192.592 108.07 192.436C107.746 192.268 107.224 192.088 106.504 191.896C105.76 191.716 105.148 191.53 104.668 191.338C104.2 191.146 103.792 190.852 103.444 190.456C103.108 190.06 102.94 189.526 102.94 188.854C102.94 188.302 103.096 187.798 103.408 187.342C103.732 186.886 104.188 186.526 104.776 186.262C105.376 185.998 106.078 185.866 106.882 185.866C108.07 185.866 109.018 186.166 109.726 186.766C110.434 187.354 110.824 188.152 110.896 189.16H108.484C108.448 188.764 108.28 188.452 107.98 188.224C107.692 187.984 107.302 187.864 106.81 187.864C106.354 187.864 106 187.948 105.748 188.116C105.508 188.284 105.388 188.518 105.388 188.818C105.388 189.154 105.556 189.412 105.892 189.592C106.228 189.76 106.75 189.934 107.458 190.114C108.178 190.294 108.772 190.48 109.24 190.672C109.708 190.864 110.11 191.164 110.446 191.572C110.794 191.968 110.974 192.496 110.986 193.156C110.986 193.732 110.824 194.248 110.5 194.704C110.188 195.16 109.732 195.52 109.132 195.784C108.544 196.036 107.854 196.162 107.062 196.162ZM125.894 183.436V185.47H122.546V196H120.026V185.47H116.678V183.436H125.894ZM133.348 185.884C134.104 185.884 134.776 186.052 135.364 186.388C135.952 186.712 136.408 187.198 136.732 187.846C137.068 188.482 137.236 189.25 137.236 190.15V196H134.716V190.492C134.716 189.7 134.518 189.094 134.122 188.674C133.726 188.242 133.186 188.026 132.502 188.026C131.806 188.026 131.254 188.242 130.846 188.674C130.45 189.094 130.252 189.7 130.252 190.492V196H127.732V182.68H130.252V187.27C130.576 186.838 131.008 186.502 131.548 186.262C132.088 186.01 132.688 185.884 133.348 185.884ZM144.061 196.162C143.101 196.162 142.237 195.952 141.469 195.532C140.701 195.1 140.095 194.494 139.651 193.714C139.219 192.934 139.003 192.034 139.003 191.014C139.003 189.994 139.225 189.094 139.669 188.314C140.125 187.534 140.743 186.934 141.523 186.514C142.303 186.082 143.173 185.866 144.133 185.866C145.093 185.866 145.963 186.082 146.743 186.514C147.523 186.934 148.135 187.534 148.579 188.314C149.035 189.094 149.263 189.994 149.263 191.014C149.263 192.034 149.029 192.934 148.561 193.714C148.105 194.494 147.481 195.1 146.689 195.532C145.909 195.952 145.033 196.162 144.061 196.162ZM144.061 193.966C144.517 193.966 144.943 193.858 145.339 193.642C145.747 193.414 146.071 193.078 146.311 192.634C146.551 192.19 146.671 191.65 146.671 191.014C146.671 190.066 146.419 189.34 145.915 188.836C145.423 188.32 144.817 188.062 144.097 188.062C143.377 188.062 142.771 188.32 142.279 188.836C141.799 189.34 141.559 190.066 141.559 191.014C141.559 191.962 141.793 192.694 142.261 193.21C142.741 193.714 143.341 193.966 144.061 193.966ZM163.495 185.884C164.719 185.884 165.703 186.262 166.447 187.018C167.203 187.762 167.581 188.806 167.581 190.15V196H165.061V190.492C165.061 189.712 164.863 189.118 164.467 188.71C164.071 188.29 163.531 188.08 162.847 188.08C162.163 188.08 161.617 188.29 161.209 188.71C160.813 189.118 160.615 189.712 160.615 190.492V196H158.095V190.492C158.095 189.712 157.897 189.118 157.501 188.71C157.105 188.29 156.565 188.08 155.881 188.08C155.185 188.08 154.633 188.29 154.225 188.71C153.829 189.118 153.631 189.712 153.631 190.492V196H151.111V186.028H153.631V187.234C153.955 186.814 154.369 186.484 154.873 186.244C155.389 186.004 155.953 185.884 156.565 185.884C157.345 185.884 158.041 186.052 158.653 186.388C159.265 186.712 159.739 187.18 160.075 187.792C160.399 187.216 160.867 186.754 161.479 186.406C162.103 186.058 162.775 185.884 163.495 185.884ZM169.324 190.978C169.324 189.97 169.522 189.076 169.918 188.296C170.326 187.516 170.872 186.916 171.556 186.496C172.252 186.076 173.026 185.866 173.878 185.866C174.622 185.866 175.27 186.016 175.822 186.316C176.386 186.616 176.836 186.994 177.172 187.45V186.028H179.71V196H177.172V194.542C176.848 195.01 176.398 195.4 175.822 195.712C175.258 196.012 174.604 196.162 173.86 196.162C173.02 196.162 172.252 195.946 171.556 195.514C170.872 195.082 170.326 194.476 169.918 193.696C169.522 192.904 169.324 191.998 169.324 190.978ZM177.172 191.014C177.172 190.402 177.052 189.88 176.812 189.448C176.572 189.004 176.248 188.668 175.84 188.44C175.432 188.2 174.994 188.08 174.526 188.08C174.058 188.08 173.626 188.194 173.23 188.422C172.834 188.65 172.51 188.986 172.258 189.43C172.018 189.862 171.898 190.378 171.898 190.978C171.898 191.578 172.018 192.106 172.258 192.562C172.51 193.006 172.834 193.348 173.23 193.588C173.638 193.828 174.07 193.948 174.526 193.948C174.994 193.948 175.432 193.834 175.84 193.606C176.248 193.366 176.572 193.03 176.812 192.598C177.052 192.154 177.172 191.626 177.172 191.014ZM185.988 196.162C185.172 196.162 184.44 196.018 183.792 195.73C183.144 195.43 182.628 195.028 182.244 194.524C181.872 194.02 181.668 193.462 181.632 192.85H184.17C184.218 193.234 184.404 193.552 184.728 193.804C185.064 194.056 185.478 194.182 185.97 194.182C186.45 194.182 186.822 194.086 187.086 193.894C187.362 193.702 187.5 193.456 187.5 193.156C187.5 192.832 187.332 192.592 186.996 192.436C186.672 192.268 186.15 192.088 185.43 191.896C184.686 191.716 184.074 191.53 183.594 191.338C183.126 191.146 182.718 190.852 182.37 190.456C182.034 190.06 181.866 189.526 181.866 188.854C181.866 188.302 182.022 187.798 182.334 187.342C182.658 186.886 183.114 186.526 183.702 186.262C184.302 185.998 185.004 185.866 185.808 185.866C186.996 185.866 187.944 186.166 188.652 186.766C189.36 187.354 189.75 188.152 189.822 189.16H187.41C187.374 188.764 187.206 188.452 186.906 188.224C186.618 187.984 186.228 187.864 185.736 187.864C185.28 187.864 184.926 187.948 184.674 188.116C184.434 188.284 184.314 188.518 184.314 188.818C184.314 189.154 184.482 189.412 184.818 189.592C185.154 189.76 185.676 189.934 186.384 190.114C187.104 190.294 187.698 190.48 188.166 190.672C188.634 190.864 189.036 191.164 189.372 191.572C189.72 191.968 189.9 192.496 189.912 193.156C189.912 193.732 189.75 194.248 189.426 194.704C189.114 195.16 188.658 195.52 188.058 195.784C187.47 196.036 186.78 196.162 185.988 196.162Z" fill="#222222"/>
<path opacity="0.5" d="M64.518 219.114C64.518 218.162 64.7373 217.308 65.176 216.552C65.624 215.796 66.226 215.208 66.982 214.788C67.7473 214.359 68.5827 214.144 69.488 214.144C70.524 214.144 71.4433 214.401 72.246 214.914C73.058 215.418 73.646 216.137 74.01 217.07H72.092C71.84 216.557 71.49 216.174 71.042 215.922C70.594 215.67 70.076 215.544 69.488 215.544C68.844 215.544 68.27 215.689 67.766 215.978C67.262 216.267 66.8653 216.683 66.576 217.224C66.296 217.765 66.156 218.395 66.156 219.114C66.156 219.833 66.296 220.463 66.576 221.004C66.8653 221.545 67.262 221.965 67.766 222.264C68.27 222.553 68.844 222.698 69.488 222.698C70.076 222.698 70.594 222.572 71.042 222.32C71.49 222.068 71.84 221.685 72.092 221.172H74.01C73.646 222.105 73.058 222.824 72.246 223.328C71.4433 223.832 70.524 224.084 69.488 224.084C68.5733 224.084 67.738 223.874 66.982 223.454C66.226 223.025 65.624 222.432 65.176 221.676C64.7373 220.92 64.518 220.066 64.518 219.114ZM77.4741 215.558V218.414H80.8341V219.716H77.4741V222.698H81.2541V224H75.8781V214.256H81.2541V215.558H77.4741ZM87.6579 224.098C86.7526 224.098 85.9173 223.888 85.1519 223.468C84.3959 223.039 83.7939 222.446 83.3459 221.69C82.9073 220.925 82.6879 220.066 82.6879 219.114C82.6879 218.162 82.9073 217.308 83.3459 216.552C83.7939 215.796 84.3959 215.208 85.1519 214.788C85.9173 214.359 86.7526 214.144 87.6579 214.144C88.5726 214.144 89.4079 214.359 90.1639 214.788C90.9293 215.208 91.5313 215.796 91.9699 216.552C92.4086 217.308 92.6279 218.162 92.6279 219.114C92.6279 220.066 92.4086 220.925 91.9699 221.69C91.5313 222.446 90.9293 223.039 90.1639 223.468C89.4079 223.888 88.5726 224.098 87.6579 224.098ZM87.6579 222.712C88.3019 222.712 88.8759 222.567 89.3799 222.278C89.8839 221.979 90.2759 221.559 90.5559 221.018C90.8453 220.467 90.9899 219.833 90.9899 219.114C90.9899 218.395 90.8453 217.765 90.5559 217.224C90.2759 216.683 89.8839 216.267 89.3799 215.978C88.8759 215.689 88.3019 215.544 87.6579 215.544C87.0139 215.544 86.4399 215.689 85.9359 215.978C85.4319 216.267 85.0353 216.683 84.7459 217.224C84.4659 217.765 84.3259 218.395 84.3259 219.114C84.3259 219.833 84.4659 220.467 84.7459 221.018C85.0353 221.559 85.4319 221.979 85.9359 222.278C86.4399 222.567 87.0139 222.712 87.6579 222.712ZM101.181 224.126C100.453 224.126 99.7952 223.963 99.2072 223.636C98.6192 223.3 98.1572 222.833 97.8212 222.236C97.4852 221.629 97.3172 220.929 97.3172 220.136C97.3172 219.352 97.4898 218.657 97.8352 218.05C98.1805 217.443 98.6518 216.977 99.2492 216.65C99.8465 216.323 100.514 216.16 101.251 216.16C101.988 216.16 102.656 216.323 103.253 216.65C103.85 216.977 104.322 217.443 104.667 218.05C105.012 218.657 105.185 219.352 105.185 220.136C105.185 220.92 105.008 221.615 104.653 222.222C104.298 222.829 103.813 223.3 103.197 223.636C102.59 223.963 101.918 224.126 101.181 224.126ZM101.181 222.74C101.592 222.74 101.974 222.642 102.329 222.446C102.693 222.25 102.987 221.956 103.211 221.564C103.435 221.172 103.547 220.696 103.547 220.136C103.547 219.576 103.44 219.105 103.225 218.722C103.01 218.33 102.726 218.036 102.371 217.84C102.016 217.644 101.634 217.546 101.223 217.546C100.812 217.546 100.43 217.644 100.075 217.84C99.7298 218.036 99.4545 218.33 99.2492 218.722C99.0438 219.105 98.9412 219.576 98.9412 220.136C98.9412 220.967 99.1512 221.611 99.5712 222.068C100 222.516 100.537 222.74 101.181 222.74ZM109.997 217.588H108.569V224H106.959V217.588H106.049V216.286H106.959V215.74C106.959 214.853 107.192 214.209 107.659 213.808C108.135 213.397 108.877 213.192 109.885 213.192V214.522C109.4 214.522 109.059 214.615 108.863 214.802C108.667 214.979 108.569 215.292 108.569 215.74V216.286H109.997V217.588ZM120.102 224L117.862 220.108H116.644V224H115.048V214.27H118.408C119.155 214.27 119.785 214.401 120.298 214.662C120.821 214.923 121.208 215.273 121.46 215.712C121.721 216.151 121.852 216.641 121.852 217.182C121.852 217.817 121.665 218.395 121.292 218.918C120.928 219.431 120.363 219.781 119.598 219.968L122.006 224H120.102ZM116.644 218.834H118.408C119.005 218.834 119.453 218.685 119.752 218.386C120.06 218.087 120.214 217.686 120.214 217.182C120.214 216.678 120.065 216.286 119.766 216.006C119.467 215.717 119.015 215.572 118.408 215.572H116.644V218.834ZM130.964 219.954C130.964 220.243 130.945 220.505 130.908 220.738H125.014C125.06 221.354 125.289 221.849 125.7 222.222C126.11 222.595 126.614 222.782 127.212 222.782C128.07 222.782 128.677 222.423 129.032 221.704H130.754C130.52 222.413 130.096 222.997 129.48 223.454C128.873 223.902 128.117 224.126 127.212 224.126C126.474 224.126 125.812 223.963 125.224 223.636C124.645 223.3 124.188 222.833 123.852 222.236C123.525 221.629 123.362 220.929 123.362 220.136C123.362 219.343 123.52 218.647 123.838 218.05C124.164 217.443 124.617 216.977 125.196 216.65C125.784 216.323 126.456 216.16 127.212 216.16C127.94 216.16 128.588 216.319 129.158 216.636C129.727 216.953 130.17 217.401 130.488 217.98C130.805 218.549 130.964 219.207 130.964 219.954ZM129.298 219.45C129.288 218.862 129.078 218.391 128.668 218.036C128.257 217.681 127.748 217.504 127.142 217.504C126.591 217.504 126.12 217.681 125.728 218.036C125.336 218.381 125.102 218.853 125.028 219.45H129.298ZM132.002 220.108C132.002 219.333 132.161 218.647 132.478 218.05C132.805 217.453 133.244 216.991 133.794 216.664C134.354 216.328 134.975 216.16 135.656 216.16C136.16 216.16 136.655 216.272 137.14 216.496C137.635 216.711 138.027 217 138.316 217.364V213.64H139.926V224H138.316V222.838C138.055 223.211 137.691 223.519 137.224 223.762C136.767 224.005 136.24 224.126 135.642 224.126C134.97 224.126 134.354 223.958 133.794 223.622C133.244 223.277 132.805 222.801 132.478 222.194C132.161 221.578 132.002 220.883 132.002 220.108ZM138.316 220.136C138.316 219.604 138.204 219.142 137.98 218.75C137.766 218.358 137.481 218.059 137.126 217.854C136.772 217.649 136.389 217.546 135.978 217.546C135.568 217.546 135.185 217.649 134.83 217.854C134.476 218.05 134.186 218.344 133.962 218.736C133.748 219.119 133.64 219.576 133.64 220.108C133.64 220.64 133.748 221.107 133.962 221.508C134.186 221.909 134.476 222.217 134.83 222.432C135.194 222.637 135.577 222.74 135.978 222.74C136.389 222.74 136.772 222.637 137.126 222.432C137.481 222.227 137.766 221.928 137.98 221.536C138.204 221.135 138.316 220.668 138.316 220.136ZM150.867 219.002C151.39 219.095 151.833 219.371 152.197 219.828C152.561 220.285 152.743 220.803 152.743 221.382C152.743 221.877 152.613 222.325 152.351 222.726C152.099 223.118 151.731 223.431 151.245 223.664C150.76 223.888 150.195 224 149.551 224H145.659V214.27H149.369C150.032 214.27 150.601 214.382 151.077 214.606C151.553 214.83 151.913 215.133 152.155 215.516C152.398 215.889 152.519 216.309 152.519 216.776C152.519 217.336 152.37 217.803 152.071 218.176C151.773 218.549 151.371 218.825 150.867 219.002ZM147.255 218.358H149.229C149.752 218.358 150.158 218.241 150.447 218.008C150.746 217.765 150.895 217.42 150.895 216.972C150.895 216.533 150.746 216.193 150.447 215.95C150.158 215.698 149.752 215.572 149.229 215.572H147.255V218.358ZM149.411 222.698C149.953 222.698 150.377 222.567 150.685 222.306C150.993 222.045 151.147 221.681 151.147 221.214C151.147 220.738 150.984 220.36 150.657 220.08C150.331 219.8 149.897 219.66 149.355 219.66H147.255V222.698H149.411ZM161.464 216.286V224H159.868V223.09C159.616 223.407 159.284 223.659 158.874 223.846C158.472 224.023 158.043 224.112 157.586 224.112C156.979 224.112 156.433 223.986 155.948 223.734C155.472 223.482 155.094 223.109 154.814 222.614C154.543 222.119 154.408 221.522 154.408 220.822V216.286H155.99V220.584C155.99 221.275 156.162 221.807 156.508 222.18C156.853 222.544 157.324 222.726 157.922 222.726C158.519 222.726 158.99 222.544 159.336 222.18C159.69 221.807 159.868 221.275 159.868 220.584V216.286H161.464ZM165.432 217.588V221.858C165.432 222.147 165.497 222.357 165.628 222.488C165.768 222.609 166.001 222.67 166.328 222.67H167.308V224H166.048C165.329 224 164.778 223.832 164.396 223.496C164.013 223.16 163.822 222.614 163.822 221.858V217.588H162.912V216.286H163.822V214.368H165.432V216.286H167.308V217.588H165.432ZM170.641 217.588V221.858C170.641 222.147 170.706 222.357 170.837 222.488C170.977 222.609 171.21 222.67 171.537 222.67H172.517V224H171.257C170.538 224 169.987 223.832 169.605 223.496C169.222 223.16 169.031 222.614 169.031 221.858V217.588H168.121V216.286H169.031V214.368H170.641V216.286H172.517V217.588H170.641ZM177.334 224.126C176.606 224.126 175.948 223.963 175.36 223.636C174.772 223.3 174.31 222.833 173.974 222.236C173.638 221.629 173.47 220.929 173.47 220.136C173.47 219.352 173.642 218.657 173.988 218.05C174.333 217.443 174.804 216.977 175.402 216.65C175.999 216.323 176.666 216.16 177.404 216.16C178.141 216.16 178.808 216.323 179.406 216.65C180.003 216.977 180.474 217.443 180.82 218.05C181.165 218.657 181.338 219.352 181.338 220.136C181.338 220.92 181.16 221.615 180.806 222.222C180.451 222.829 179.966 223.3 179.35 223.636C178.743 223.963 178.071 224.126 177.334 224.126ZM177.334 222.74C177.744 222.74 178.127 222.642 178.482 222.446C178.846 222.25 179.14 221.956 179.364 221.564C179.588 221.172 179.7 220.696 179.7 220.136C179.7 219.576 179.592 219.105 179.378 218.722C179.163 218.33 178.878 218.036 178.524 217.84C178.169 217.644 177.786 217.546 177.376 217.546C176.965 217.546 176.582 217.644 176.228 217.84C175.882 218.036 175.607 218.33 175.402 218.722C175.196 219.105 175.094 219.576 175.094 220.136C175.094 220.967 175.304 221.611 175.724 222.068C176.153 222.516 176.69 222.74 177.334 222.74ZM186.807 216.16C187.414 216.16 187.955 216.286 188.431 216.538C188.917 216.79 189.295 217.163 189.565 217.658C189.836 218.153 189.971 218.75 189.971 219.45V224H188.389V219.688C188.389 218.997 188.217 218.47 187.871 218.106C187.526 217.733 187.055 217.546 186.457 217.546C185.86 217.546 185.384 217.733 185.029 218.106C184.684 218.47 184.511 218.997 184.511 219.688V224H182.915V216.286H184.511V217.168C184.773 216.851 185.104 216.603 185.505 216.426C185.916 216.249 186.35 216.16 186.807 216.16Z" fill="#666666"/>
<defs>
<filter id="filter0_d_1_306" x="0" y="0" width="562" height="292" filterUnits="userSpaceOnUse" color-interpolation-filters="sRGB">
<feFlood flood-opacity="0" result="BackgroundImageFix"/>
<feColorMatrix in="SourceAlpha" type="matrix" values="0 0 0 0 0 0 0 0 0 0 0 0 0 0 0 0 0 0 127 0" result="hardAlpha"/>
<feOffset dy="10"/>
<feGaussianBlur stdDeviation="15"/>
<feComposite in2="hardAlpha" operator="out"/>
<feColorMatrix type="matrix" values="0 0 0 0 0.133333 0 0 0 0 0.133333 0 0 0 0 0.133333 0 0 0 0.35 0"/>
<feBlend mode="normal" in2="BackgroundImageFix" result="effect1_dropShadow_1_306"/>
<feBlend mode="normal" in="SourceGraphic" in2="effect1_dropShadow_1_306" result="shape"/>
</filter>
</defs>
</svg>
