<svg width="27" height="27" viewBox="0 0 27 27" fill="none" xmlns="http://www.w3.org/2000/svg">
<g filter="url(#filter0_d_1_43)">
<path d="M5.64111 4.96058C5.79426 4.76583 5.99595 4.50221 6.15747 4.31379C6.6412 3.79446 6.70397 3.72638 7.14417 3.34242C7.27473 3.24108 7.42956 3.11917 7.58103 3.00437C6.46378 3.89896 6.32151 4.88933 7.3467 5.50129C7.34503 5.50129 7.34503 5.50129 7.34503 5.50287C8.77863 6.31987 11.9203 6.14333 14.3992 5.09675C16.8003 4.08342 17.6865 2.63388 16.5015 1.77254C15.4612 1.58808 14.221 1.56671 12.9087 1.73296L12.7723 1.52L12.8853 1.16692C13.6569 1.10121 14.39 1.11704 15.0227 1.21917C15.1759 1.24371 15.3776 1.28567 15.5282 1.31575C15.8194 1.38304 15.9776 1.42342 16.1676 1.48121C16.3617 1.53583 16.5274 1.59046 16.8162 1.69179C17.099 1.79708 17.2212 1.84458 17.448 1.95146C17.702 2.06108 17.9488 2.18506 18.187 2.32275C20.0751 3.44612 18.9009 5.49575 15.5692 6.90017C12.2467 8.29983 8.01287 8.51992 6.11563 7.41C6.11479 7.40842 6.11228 7.40683 6.10726 7.40525H6.11061C5.07453 6.78458 4.96573 5.88367 5.64111 4.96058ZM14.2854 12.8139L14.2586 11.552L13.3104 10.5545C10.1779 11.2258 7.09898 11.0817 5.38669 10.1278C5.38084 10.1215 5.36661 10.1151 5.36075 10.1088C4.39162 9.54433 4.15227 8.816 4.22508 8.02433C3.99828 9.18254 3.97987 9.60054 4.01251 10.5917C4.05268 11.2124 4.4318 11.7847 5.19421 12.236L5.20007 12.2423C7.02533 13.3158 10.8282 13.5486 14.2854 12.8139ZM18.2397 14.2587C13.8184 15.9362 8.28486 16.0352 5.8813 14.4827C6.14087 15.0828 6.49406 15.6427 6.92909 16.1437C9.13515 17.5687 14.2143 17.4776 18.2707 15.9378C20.645 15.0377 22.143 13.8399 22.5364 12.7173L22.6468 12.3793C22.9088 11.5227 22.9582 10.8094 23 10.1745C22.9523 11.5528 21.2358 13.1203 18.2397 14.2587ZM8.47986 17.4895C8.61878 17.6146 9.05564 18.122 11.2692 18.6825C11.8676 18.8076 13.374 19.209 16.1567 18.6255L16.1734 18.3857L15.9533 18.0595C13.3715 18.6374 10.5035 18.4442 8.47986 17.4895ZM14.8687 7.50737L17.2196 9.19283C17.2196 9.19283 17.7225 9.53563 17.248 9.77629C16.7752 10.0146 15.5608 10.598 15.5608 10.598L14.3616 10.1745L13.7598 10.4278L14.821 11.2995L14.8294 12.6556L15.4529 12.3935L15.8663 11.248C15.8663 11.248 17.1359 10.7857 17.6397 10.6115C18.146 10.4413 18.0782 11.024 18.0782 11.024L17.8288 13.8035L18.6573 13.4552L20.0215 9.70504C20.0215 9.70504 20.7446 9.37254 21.2534 9.08042C21.7614 8.78829 21.9355 8.30379 21.9355 8.30379C21.9355 8.30379 21.44 8.10192 20.8693 8.26421C20.2985 8.42492 19.5545 8.7115 19.5545 8.7115L15.6947 7.16062L14.8687 7.50737ZM9.89505 2.17471L11.491 3.37725L11.927 3.3155L11.0583 2.23646C11.0583 2.23646 10.8692 2.01321 11.1236 1.96017C11.3797 1.90633 12.0275 1.78125 12.0275 1.78125L12.5145 2.14937L12.8426 2.10346L12.471 1.54454L12.6668 0.924667L12.3497 0.968208L11.9739 1.44004C11.9739 1.44004 11.3144 1.49862 11.055 1.51921C10.7939 1.53821 10.906 1.273 10.906 1.273L11.4065 0L10.968 0.0609583L9.81303 1.65142C9.81303 1.65142 9.42806 1.71792 9.14938 1.79313C8.86985 1.86754 8.72256 2.07179 8.72256 2.07179C8.72256 2.07179 8.9276 2.22854 9.21633 2.223C9.50757 2.21746 9.89505 2.17471 9.89505 2.17471ZM17.7828 17.6265L16.7501 17.1158L16.5124 17.1942L17.1242 17.712C17.1242 17.712 17.2547 17.8172 17.1175 17.8735C16.9802 17.9289 16.6304 18.065 16.6304 18.065L16.3417 17.9431L16.1701 18.0017L16.4103 18.244L16.3868 18.5978L16.5659 18.5392L16.6998 18.2519C16.6998 18.2519 17.0631 18.1497 17.2078 18.1133C17.3518 18.0761 17.3192 18.236 17.3192 18.236L17.1827 19L17.4213 18.9216L17.8891 17.9115C17.8891 17.9115 18.0958 17.8347 18.2439 17.7642C18.3921 17.6937 18.4506 17.5639 18.4506 17.5639C18.4506 17.5639 18.3192 17.4958 18.1569 17.5299C17.9937 17.5623 17.7828 17.6265 17.7828 17.6265Z" fill="#666666"/>
</g>
<defs>
<filter id="filter0_d_1_43" x="0" y="0" width="27" height="27" filterUnits="userSpaceOnUse" color-interpolation-filters="sRGB">
<feFlood flood-opacity="0" result="BackgroundImageFix"/>
<feColorMatrix in="SourceAlpha" type="matrix" values="0 0 0 0 0 0 0 0 0 0 0 0 0 0 0 0 0 0 127 0" result="hardAlpha"/>
<feOffset dy="4"/>
<feGaussianBlur stdDeviation="2"/>
<feComposite in2="hardAlpha" operator="out"/>
<feColorMatrix type="matrix" values="0 0 0 0 0 0 0 0 0 0 0 0 0 0 0 0 0 0 0.25 0"/>
<feBlend mode="normal" in2="BackgroundImageFix" result="effect1_dropShadow_1_43"/>
<feBlend mode="normal" in="SourceGraphic" in2="effect1_dropShadow_1_43" result="shape"/>
</filter>
</defs>
</svg>
