<svg width="55" height="56" viewBox="0 0 55 56" fill="none" xmlns="http://www.w3.org/2000/svg">
<g filter="url(#filter0_d_1_121)">
<path d="M29.6963 0.0960599C29.5085 0.161798 29.2173 0.321446 29.0577 0.44353C28.9074 0.565614 26.0432 4.67891 22.6999 9.59045L16.6239 18.512L14.9053 18.5402L13.1868 18.5589L13.2337 18.2584C13.2619 18.0894 13.4403 16.4084 13.6187 14.5208C13.7972 12.6332 13.9662 10.9146 13.9944 10.6986C14.0507 10.3136 14.0789 10.2854 14.7175 9.94731C15.3561 9.60923 16.2576 8.83916 16.6333 8.29448L16.8211 8.02214L19.5351 8.30387C21.3758 8.4823 22.3431 8.54804 22.5121 8.49169C23.038 8.31326 23.0756 7.50563 22.5685 7.28963C22.4464 7.23329 21.1128 7.07364 19.5915 6.92338C16.53 6.63226 16.2952 6.64165 15.8444 7.13938C15.6942 7.29902 15.3561 7.66528 15.0838 7.9564C14.802 8.26631 14.3982 8.5856 14.0695 8.74525C13.2337 9.14907 12.9426 9.40263 12.7923 9.84401C12.6984 10.0882 12.4824 11.9288 12.2383 14.3987L11.8344 18.5589H11.3931H10.9423L10.9892 18.2021C11.0174 18.0143 11.3179 15.0748 11.6466 11.6753C11.9847 8.26631 12.304 5.41142 12.351 5.30811C12.4918 5.04516 12.7548 4.94186 13.2619 4.94186C13.5061 4.94186 16.0135 5.17664 18.8214 5.45837C23.3479 5.90914 23.9677 5.94671 24.1931 5.83401C24.6439 5.59924 24.6251 4.85734 24.1649 4.66013C24.0429 4.61317 22.39 4.42535 20.4742 4.23753C18.5679 4.04971 16.1262 3.81493 15.0462 3.70224C13.9568 3.59894 12.9144 3.54259 12.689 3.57076C11.8344 3.70224 11.1019 4.43474 10.9329 5.34568C10.8766 5.61802 10.6136 8.09727 10.3413 10.8582L9.85292 15.8825L8.66965 15.9388C7.65541 15.9764 7.42063 16.0233 7.0356 16.2206C6.23735 16.6338 5.78658 17.4132 5.77719 18.4181C5.7678 18.8688 5.74902 18.897 5.32642 19.1694C5.09164 19.3196 4.75356 19.6295 4.58452 19.8549C3.95532 20.6813 3.98349 19.9582 4.01166 33.5002L4.03984 45.7461L4.26522 46.2345C4.53757 46.8543 5.30764 47.5774 5.91806 47.8216C6.37822 48 6.86656 48 26.2028 48H46.018L46.5063 47.7746C47.0886 47.5117 47.7835 46.8073 48.0653 46.1875C48.2625 45.7649 48.2719 45.6147 48.3 42.1494L48.3282 38.562H48.6757C49.4833 38.562 50.197 38.1581 50.4412 37.5571C50.5445 37.3129 50.5727 36.4302 50.5727 33.3029C50.5727 29.5559 50.5633 29.3305 50.3849 28.983C50.1031 28.429 49.7087 28.1942 48.9574 28.1566L48.3188 28.1191V24.7195C48.3188 21.8646 48.2906 21.2354 48.1686 20.8128C47.9995 20.2493 47.6051 19.6107 47.2388 19.329C47.0229 19.16 47.0041 19.0754 47.0041 18.4462C47.0041 17.6104 46.7223 16.9437 46.1777 16.4929C45.7832 16.1736 45.0883 15.9294 44.5436 15.9294H44.1774L45.2761 14.3236C45.8865 13.4314 46.4312 12.5205 46.5063 12.2763C46.7317 11.525 46.4876 10.6329 45.9053 10.0976C45.7644 9.96609 44.5248 9.09272 43.1537 8.163C41.7826 7.23329 38.6366 5.08273 36.1574 3.39233C33.6781 1.70194 31.5276 0.255708 31.3773 0.18058C30.9923 -0.0166331 30.1283 -0.0635886 29.6963 0.0960599ZM30.8608 1.47655C31.4336 1.77706 44.7408 10.9146 44.9662 11.1494C45.3794 11.5908 45.3137 11.8161 44.4027 13.1685C43.9426 13.8352 42.9471 15.319 42.1677 16.4647L40.759 18.5495L40.2143 18.5589H39.679L40.7778 16.9531C41.3788 16.0609 41.9235 15.1781 41.9986 14.9715C42.1395 14.5489 42.0831 14.2296 41.6887 13.2999C41.4727 12.7834 41.4258 12.5393 41.407 11.6753C41.3882 10.8395 41.3412 10.6047 41.1816 10.3511C41.0501 10.1257 39.8856 9.28054 37.181 7.43989C35.0868 6.01245 33.2743 4.801 33.1428 4.75404C32.7296 4.59439 32.2976 4.65074 31.5369 4.96064C30.8984 5.22359 30.6824 5.26116 29.7996 5.27994C28.6163 5.30811 28.2782 5.4302 27.8744 6.00305C27.7148 6.21905 25.7614 9.08333 23.5263 12.3608C21.2913 15.6383 19.4131 18.3805 19.3567 18.4462C19.2816 18.5214 19.0656 18.5589 18.7557 18.5402L18.2861 18.512L24.0053 10.107C27.1513 5.48654 29.8184 1.62681 29.9217 1.5329C30.1471 1.35447 30.5791 1.32629 30.8608 1.47655ZM36.4391 8.5856L40.0077 11.0179L40.0641 12.0415C40.111 12.8398 40.1767 13.206 40.374 13.7225C40.5148 14.0794 40.6369 14.4456 40.6463 14.5208C40.6557 14.6053 40.0734 15.5444 39.3503 16.615L38.0356 18.5495L36.8617 18.5589H35.6784L35.5751 17.9297C35.4249 17.0658 34.8144 15.8825 34.1758 15.1875C33.4997 14.455 32.7766 13.9855 31.8093 13.6474C29.8466 12.9712 27.4988 13.5253 26.0526 15.0091C25.2449 15.8355 24.6345 17.0094 24.4842 18.0236L24.4185 18.512L22.6999 18.5402C21.3194 18.5589 20.9908 18.5402 21.0471 18.4462C21.0941 18.3805 22.9159 15.6947 25.1041 12.4735L29.0859 6.63226H29.9686C30.6448 6.63226 31.011 6.57591 31.5745 6.39748C31.9783 6.266 32.3728 6.12514 32.4385 6.07818C32.523 6.02184 32.6451 6.02184 32.7202 6.06879C32.8047 6.11575 34.4764 7.24268 36.4391 8.5856ZM31.0862 14.8495C31.8469 15.0561 32.4761 15.4129 33.0489 15.9858C33.6406 16.5774 33.9974 17.2066 34.1758 17.9767L34.3073 18.5589H30.0438H25.7708L25.8366 18.2021C26.2685 15.8261 28.7384 14.239 31.0862 14.8495ZM9.68388 17.6292C9.65571 17.7889 9.62754 18.0706 9.62754 18.2396V18.5589H8.40669H7.18585V18.2209C7.18585 17.9767 7.26098 17.817 7.45819 17.6104C7.73054 17.3475 7.75871 17.3381 8.73538 17.3381H9.74962L9.68388 17.6292ZM45.2479 17.5353C45.5203 17.7419 45.7738 18.4275 45.633 18.5402C45.586 18.5777 44.8441 18.5965 43.9801 18.5777L42.4118 18.5495L42.8063 17.9485L43.2007 17.3381H44.1022C44.8723 17.3381 45.0413 17.3663 45.2479 17.5353ZM46.2246 20.3057C46.8162 20.7752 46.9102 21.0664 46.9102 22.3811V23.5362H26.1559H5.40155V22.3623C5.40155 21.5265 5.43911 21.1039 5.53302 20.9255C5.70206 20.5968 6.13405 20.193 6.43457 20.0709C6.58482 20.0146 13.3934 19.9864 26.2685 19.9958L45.8584 20.0146L46.2246 20.3057ZM46.9102 26.5414V28.1378H43.3697C40.5336 28.1378 39.6978 28.166 39.2189 28.2787C37.5754 28.6731 36.1668 29.9315 35.5469 31.5656C35.284 32.2699 35.1901 33.7068 35.3591 34.4393C35.7817 36.2611 37.1716 37.7449 39.0216 38.3366C39.463 38.4774 40.0453 38.5056 43.2289 38.5432L46.9102 38.5807V40.1678V41.7549H30.025C13.2149 41.7549 13.1304 41.7549 12.9614 41.9427C12.7454 42.1869 12.7454 42.6377 12.9614 42.8819C13.1304 43.0697 13.2149 43.0697 30.025 43.0697H46.9102V44.2623C46.9102 45.3329 46.882 45.502 46.6942 45.84C46.5721 46.0467 46.3185 46.3002 46.1119 46.4223L45.7363 46.6383H26.1746C4.37792 46.6383 6.23735 46.6946 5.70206 45.9997C5.45789 45.6804 5.4485 45.6147 5.42033 44.3656L5.38276 43.0697H7.36428C9.22372 43.0697 9.35519 43.0603 9.53363 42.8819C9.63693 42.7786 9.72145 42.572 9.72145 42.4123C9.72145 42.2527 9.63693 42.0461 9.53363 41.9427C9.35519 41.7643 9.22372 41.7549 7.37367 41.7549H5.40155V33.3499V24.9449H26.1559H46.9102V26.5414ZM49.1452 33.3217L49.164 37.1533H44.5906C41.9047 37.1533 39.8387 37.1063 39.6039 37.0594C38.1295 36.7119 36.9462 35.4629 36.6645 33.9509C36.2888 31.8943 37.8102 29.8282 39.895 29.5559C40.2143 29.5089 42.4212 29.4808 44.7972 29.4902L49.1171 29.4996L49.1452 33.3217Z" fill="#4086F4"/>
</g>
<defs>
<filter id="filter0_d_1_121" x="0" y="0" width="54.5727" height="56" filterUnits="userSpaceOnUse" color-interpolation-filters="sRGB">
<feFlood flood-opacity="0" result="BackgroundImageFix"/>
<feColorMatrix in="SourceAlpha" type="matrix" values="0 0 0 0 0 0 0 0 0 0 0 0 0 0 0 0 0 0 127 0" result="hardAlpha"/>
<feOffset dy="4"/>
<feGaussianBlur stdDeviation="2"/>
<feComposite in2="hardAlpha" operator="out"/>
<feColorMatrix type="matrix" values="0 0 0 0 0 0 0 0 0 0 0 0 0 0 0 0 0 0 0.25 0"/>
<feBlend mode="normal" in2="BackgroundImageFix" result="effect1_dropShadow_1_121"/>
<feBlend mode="normal" in="SourceGraphic" in2="effect1_dropShadow_1_121" result="shape"/>
</filter>
</defs>
</svg>
